<svg width="34" height="34" viewBox="0 0 34 34" fill="none" xmlns="http://www.w3.org/2000/svg">
<path d="M24.3099 31.2199L24.3106 31.2195C24.8006 30.9665 24.9914 30.3616 24.7355 29.8725C24.4785 29.3814 23.8756 29.19 23.3883 29.4462L23.3871 29.4469C20.6129 30.8866 17.4794 31.3356 14.3247 30.7508L14.3246 30.7507C8.64178 29.693 4.05953 24.9664 3.17328 19.25L24.3099 31.2199ZM24.3099 31.2199C22.0408 32.4012 19.5637 33.0016 17.017 33.0016C16.0061 33.0016 14.9847 32.9064 13.9594 32.7159C7.46219 31.5053 2.21279 26.0919 1.19903 19.555C0.429009 14.5901 1.9376 9.66927 5.33588 6.04944C8.73422 2.43122 13.5134 0.627409 18.5029 1.06895C25.9126 1.74553 31.9229 7.55039 32.8674 14.9057L32.8637 14.9069L32.887 15.1086C33.2317 18.0966 32.7489 21.0931 31.4907 23.772L31.4905 23.7724C30.7656 25.3229 29.1338 26.335 27.3303 26.335C25.0799 26.335 23.1968 24.7342 22.7602 22.6113L22.6681 22.1634L22.3407 22.4827C20.9582 23.8313 19.0766 24.6683 16.9986 24.6683C12.7717 24.6683 9.33198 21.2286 9.33198 17.0016C9.33198 12.7747 12.7717 9.33496 16.9986 9.33496C19.0306 9.33496 20.8686 10.1426 22.2437 11.4401L22.6653 11.8379V11.2583V10.335C22.6653 9.78303 23.1134 9.33496 23.6653 9.33496C24.2172 9.33496 24.6653 9.78303 24.6653 10.335V21.67C24.6653 23.138 25.8588 24.3313 27.3247 24.335H27.3253H27.3303C28.3459 24.335 29.2758 23.7904 29.6833 22.9229L29.6833 22.9228C30.7834 20.5783 31.2039 17.9548 30.902 15.3363L30.902 15.3363M24.3099 31.2199L30.902 15.3363M30.902 15.3363C30.1617 8.9235 24.7541 3.65013 18.3182 3.06267L30.902 15.3363ZM6.7914 7.4205C3.81623 10.5891 2.49832 14.9017 3.17327 19.2499L18.318 3.06266C13.9904 2.66572 9.76623 4.25221 6.7914 7.4205ZM11.3336 17C11.3336 20.1247 13.8756 22.6666 17.0003 22.6666C20.1251 22.6666 22.667 20.1247 22.667 17C22.667 13.8752 20.1251 11.3333 17.0003 11.3333C13.8756 11.3333 11.3336 13.8752 11.3336 17Z" fill="#0B44AA" stroke="white" stroke-width="0.5"/>
</svg>
