<svg width="40" height="40" viewBox="0 0 40 40" fill="none" xmlns="http://www.w3.org/2000/svg">
<path d="M24.1818 35.4877C23.131 35.4878 21.7671 35.155 20.0006 34.2447C17.5471 32.9803 14.7287 30.8167 12.0645 28.1525C9.40025 25.4884 7.23674 22.67 5.97236 20.2166C4.00721 16.4032 4.73393 14.4634 5.68979 13.5076L9.34635 9.85113C9.54783 9.63496 9.84174 9.54081 10.1622 9.5916C10.816 9.69542 12.1154 10.6592 13.0903 11.4493C14.0653 12.2395 15.2771 13.3112 15.5141 13.9293C15.6382 14.2532 15.5938 14.5814 15.3924 14.8299C15.3753 14.851 15.3572 14.8712 15.338 14.8904L12.4197 17.8087C12.5877 18.4693 14.011 20.5459 16.8412 23.3761C19.6713 26.2062 21.7481 27.6295 22.4086 27.7975L25.3268 24.8793C25.346 24.86 25.3662 24.8419 25.3874 24.8248C25.5091 24.726 25.8447 24.5166 26.3301 24.7027C27.0352 24.9731 28.1925 26.3114 28.8196 27.085C29.4467 27.8588 30.5164 29.2681 30.6348 30.0139C30.7061 30.4632 30.5049 30.7375 30.3719 30.8651L26.7096 34.5275C26.1967 35.0406 25.3997 35.4877 24.1818 35.4877ZM10.1548 11.2524L6.79471 14.6124C5.67354 15.7335 6.66854 18.1564 7.36135 19.5007C8.55369 21.8144 10.6163 24.4946 13.1694 27.0475C15.7224 29.6007 18.4027 31.6633 20.7164 32.8558C22.0609 33.5487 24.4841 34.5436 25.6049 33.4225L28.991 30.0364C28.7946 29.6649 28.3318 28.9645 27.6059 28.0688C26.934 27.2398 26.379 26.6659 26.0442 26.3717L23.3765 29.0393C22.5494 29.8664 21.1499 29.0421 19.89 28.1265C18.6925 27.2563 17.2172 25.9614 15.736 24.4801C14.2549 22.9991 12.9603 21.524 12.0903 20.3267C11.1751 19.067 10.3509 17.6677 11.1778 16.8407L13.8185 14.2C13.0719 13.3926 11.0206 11.7373 10.1548 11.2524Z" fill="#0B44AA"/>
<path d="M30.6348 30.0139C30.5163 29.268 29.4466 27.8587 28.8195 27.085C28.1925 26.3114 27.0352 24.973 26.3301 24.7027C25.8446 24.5165 25.509 24.726 25.3873 24.8248C25.3662 24.8418 25.346 24.86 25.3268 24.8792L22.4086 27.7975C21.748 27.6295 19.6713 26.2062 16.8412 23.3761C14.011 20.5459 12.5877 18.4692 12.4197 17.8087L15.338 14.8904C15.3572 14.8712 15.3753 14.851 15.3924 14.8298C15.5938 14.5813 15.6382 14.2531 15.5141 13.9293C15.277 13.3112 14.0651 12.2395 13.0903 11.4493C12.1154 10.6591 10.816 9.69539 10.1622 9.59156C9.84163 9.54086 9.54781 9.635 9.34632 9.85109L5.68976 13.5076C4.73398 14.4634 4.00718 16.4032 5.97234 20.2166C7.23671 22.67 9.40023 25.4884 12.0644 28.1525C14.7287 30.8166 17.5471 32.9804 20.0005 34.2447C21.7669 35.155 23.1309 35.4878 24.1818 35.4877C25.3997 35.4877 26.1967 35.0405 26.7098 34.5274L30.372 30.865C30.5048 30.7374 30.7061 30.4631 30.6348 30.0139ZM25.6047 33.4226C24.4837 34.5437 22.0606 33.5487 20.7162 32.8559C18.4025 31.6634 15.7222 29.6007 13.1691 27.0476C10.6161 24.4946 8.55343 21.8145 7.36109 19.5008C6.66827 18.1564 5.67327 15.7335 6.79445 14.6124L10.1545 11.2524C11.0204 11.7373 13.0716 13.3927 13.8183 14.2002L11.1776 16.8409C10.3506 17.6679 11.1748 19.0672 12.0901 20.3269C12.96 21.5242 14.2547 22.9993 15.7358 24.4803C17.2169 25.9616 18.6923 27.2565 19.8898 28.1267C21.1497 29.0423 22.5491 29.8666 23.3762 29.0395L26.0439 26.3719C26.3787 26.6661 26.9338 27.2399 27.6056 28.069C28.3316 28.9647 28.7944 29.6651 28.9908 30.0366L25.6047 33.4226ZM29.156 21.2457C28.7246 21.2457 28.3748 20.8959 28.3748 20.4645C28.3748 15.4705 24.3118 11.4076 19.3178 11.4076C18.8864 11.4076 18.5366 11.0578 18.5366 10.6263C18.5366 10.1948 18.8864 9.84508 19.3178 9.84508C25.1734 9.84508 29.9373 14.6089 29.9373 20.4645C29.9373 20.896 29.5875 21.2457 29.156 21.2457Z" fill="#0B44AA"/>
<path d="M24.2372 22.1763C23.8058 22.1763 23.456 21.8264 23.456 21.3951C23.456 18.6004 21.1823 16.3268 18.3877 16.3268C17.9563 16.3268 17.6064 15.9771 17.6064 15.5456C17.6064 15.1141 17.9563 14.7643 18.3877 14.7643C22.0439 14.7643 25.0185 17.7388 25.0185 21.3951C25.0185 21.8265 24.6687 22.1763 24.2372 22.1763ZM34.4894 21.3231C34.058 21.3231 33.7082 20.9734 33.7082 20.5419C33.7082 12.5647 27.2182 6.07471 19.2409 6.07471C18.8095 6.07471 18.4596 5.72494 18.4596 5.29346C18.4596 4.86197 18.8095 4.51221 19.2409 4.51221C28.0797 4.51221 35.2707 11.7031 35.2707 20.5419C35.2707 20.9734 34.9208 21.3231 34.4894 21.3231Z" fill="#0B44AA"/>
</svg>
