<svg width="487" height="413" viewBox="0 0 487 413" fill="none" xmlns="http://www.w3.org/2000/svg">
<path d="M445.34 160.824C305.14 80.4152 242.463 59.7974 111.426 44.817" stroke="white" stroke-linecap="round" stroke-dasharray="20 8"/>
<path d="M101.211 320.633C81.555 271.704 76.9392 243.75 87.2359 192.389" stroke="white" stroke-linecap="round" stroke-dasharray="20 8"/>
<path d="M103.088 319.166C23.0914 265.973 7.42216 201.234 17.3186 91.5484" stroke="white" stroke-linecap="round" stroke-dasharray="20 8"/>
<path d="M87.006 192.162C59.3784 178.555 18.1433 128.66 18.1432 92.3734" stroke="white" stroke-linecap="round" stroke-dasharray="20 8"/>
<path d="M178.961 125.361C143.911 103.507 67.2137 85.7755 18.9686 92.7856" stroke="white" stroke-linecap="round" stroke-dasharray="20 8"/>
<path d="M110.923 44.5405C65.9763 44.5405 37.9364 59.7975 18.1436 92.3733" stroke="white" stroke-linecap="round" stroke-dasharray="20 8"/>
<path d="M102.422 318.921C180.963 318.275 225.969 321.968 305.14 272.571" stroke="white" stroke-linecap="round" stroke-dasharray="20 8"/>
<line x1="102.947" y1="318.986" x2="234.86" y2="396.004" stroke="white" stroke-linecap="round" stroke-dasharray="20 8"/>
<path d="M445.339 160.412C339.755 132.197 280.923 124.685 176.618 125.621" stroke="white" stroke-linecap="round" stroke-dasharray="20 8"/>
<path d="M445.751 160.824C403.279 267.623 348.64 358.006 235.331 396.711" stroke="white" stroke-linecap="round" stroke-dasharray="20 8"/>
<path d="M444.102 161.236C414.825 219.378 382.249 256.902 304.582 272.276" stroke="white" stroke-linecap="round" stroke-dasharray="20 8"/>
<path d="M306.376 273.809C296.892 328.239 277.924 357.928 237.101 396.689" stroke="white" stroke-linecap="round" stroke-dasharray="20 8"/>
<path d="M306.789 273.809C199.99 287.004 133.602 251.542 84.9441 191.338" stroke="white" stroke-linecap="round" stroke-dasharray="20 8"/>
<path d="M305.674 272.96C278.406 211.826 259.842 178.09 179.762 125.651" stroke="white" stroke-linecap="round" stroke-dasharray="20 8"/>
<path d="M114.922 43.7577C154.883 75.0195 170.491 93.6722 179.826 130.022" stroke="white" stroke-linecap="round" stroke-dasharray="20 8"/>
<path d="M87.4668 191.049C115.333 153.241 135.461 138.816 179.498 125.313" stroke="white" stroke-linecap="round" stroke-dasharray="20 8"/>
<circle cx="444.329" cy="160.042" r="5.865" fill="white"/>
<ellipse opacity="0.6" cx="305.777" cy="272.087" rx="8.625" ry="8.28" fill="white"/>
<circle cx="305.778" cy="272.202" r="5.865" fill="white"/>
<circle cx="101.253" cy="317.56" r="5.865" fill="white"/>
<circle cx="235.678" cy="395.907" r="5.865" fill="white"/>
<circle cx="178.886" cy="124.115" r="5.865" fill="white"/>
<circle cx="110.324" cy="42.1094" r="5.865" fill="white"/>
<circle cx="17.1336" cy="91.5918" r="5.865" fill="white"/>
<circle cx="84.7586" cy="191.381" r="5.865" fill="white"/>
<g clip-path="url(#clip0_2839_913)">
<path d="M236.69 357.103C229.443 357.103 223.548 362.998 223.548 370.244C223.548 379.237 235.308 392.44 235.809 392.997C236.279 393.521 237.101 393.52 237.57 392.997C238.071 392.44 249.831 379.237 249.831 370.244C249.831 362.998 243.936 357.103 236.69 357.103ZM236.69 376.856C233.044 376.856 230.078 373.89 230.078 370.244C230.078 366.599 233.044 363.633 236.69 363.633C240.335 363.633 243.301 366.599 243.301 370.245C243.301 373.89 240.335 376.856 236.69 376.856Z" fill="#94D4FF"/>
</g>
<g clip-path="url(#clip1_2839_913)">
<path d="M306.79 233.397C299.544 233.397 293.648 239.293 293.648 246.539C293.648 255.532 305.409 268.734 305.91 269.292C306.38 269.815 307.201 269.814 307.671 269.292C308.171 268.734 319.932 255.532 319.932 246.539C319.932 239.293 314.037 233.397 306.79 233.397ZM306.79 253.151C303.144 253.151 300.178 250.185 300.178 246.539C300.178 242.893 303.144 239.927 306.79 239.927C310.436 239.927 313.402 242.893 313.402 246.539C313.402 250.185 310.436 253.151 306.79 253.151Z" fill="#94D4FF"/>
</g>
<g clip-path="url(#clip2_2839_913)">
<path d="M445.34 121.238C438.094 121.238 432.198 127.133 432.198 134.379C432.198 143.372 443.959 156.575 444.46 157.132C444.93 157.656 445.751 157.655 446.22 157.132C446.721 156.575 458.482 143.372 458.482 134.379C458.482 127.133 452.586 121.238 445.34 121.238ZM445.34 140.991C441.694 140.991 438.728 138.025 438.728 134.379C438.728 130.734 441.694 127.768 445.34 127.768C448.986 127.768 451.952 130.734 451.952 134.38C451.952 138.025 448.986 140.991 445.34 140.991Z" fill="#94D4FF"/>
</g>
<g clip-path="url(#clip3_2839_913)">
<path d="M179.785 85.7756C172.539 85.7756 166.644 91.671 166.644 98.9173C166.644 107.91 178.404 121.112 178.905 121.67C179.375 122.194 180.196 122.193 180.666 121.67C181.166 121.112 192.927 107.91 192.927 98.9173C192.927 91.671 187.032 85.7756 179.785 85.7756ZM179.785 105.529C176.139 105.529 173.173 102.563 173.173 98.9173C173.173 95.2715 176.14 92.3054 179.785 92.3054C183.431 92.3054 186.397 95.2715 186.397 98.9174C186.397 102.563 183.431 105.529 179.785 105.529Z" fill="#94D4FF"/>
</g>
<g clip-path="url(#clip4_2839_913)">
<path d="M111.335 3.3053C104.089 3.3053 98.1934 9.20065 98.1934 16.447C98.1934 25.4399 109.954 38.642 110.455 39.1996C110.925 39.7235 111.746 39.7226 112.216 39.1996C112.716 38.642 124.477 25.4399 124.477 16.447C124.477 9.20065 118.581 3.3053 111.335 3.3053ZM111.335 23.0589C107.689 23.0589 104.723 20.0928 104.723 16.447C104.723 12.8011 107.689 9.8351 111.335 9.8351C114.981 9.8351 117.947 12.8012 117.947 16.447C117.947 20.0929 114.981 23.0589 111.335 23.0589Z" fill="#94D4FF"/>
</g>
<g clip-path="url(#clip5_2839_913)">
<path d="M18.1437 52.7874C10.8973 52.7874 5.00195 58.6827 5.00195 65.929C5.00195 74.9219 16.7625 88.1241 17.2632 88.6817C17.7336 89.2055 18.5547 89.2046 19.0242 88.6817C19.5249 88.1241 31.2854 74.9219 31.2854 65.929C31.2853 58.6827 25.39 52.7874 18.1437 52.7874ZM18.1437 72.541C14.4979 72.541 11.5318 69.5749 11.5318 65.929C11.5318 62.2832 14.4979 59.3172 18.1437 59.3172C21.7895 59.3172 24.7555 62.2833 24.7555 65.9291C24.7555 69.5749 21.7895 72.541 18.1437 72.541Z" fill="#94D4FF"/>
</g>
<g clip-path="url(#clip6_2839_913)">
<path d="M85.7697 152.577C78.5233 152.577 72.6279 158.472 72.6279 165.718C72.6279 174.711 84.3885 187.913 84.8892 188.471C85.3595 188.995 86.1807 188.994 86.6501 188.471C87.1508 187.913 98.9114 174.711 98.9114 165.718C98.9113 158.472 93.016 152.577 85.7697 152.577ZM85.7697 172.33C82.1238 172.33 79.1578 169.364 79.1578 165.718C79.1578 162.072 82.1239 159.106 85.7697 159.106C89.4155 159.106 92.3815 162.073 92.3815 165.718C92.3815 169.364 89.4155 172.33 85.7697 172.33Z" fill="#94D4FF"/>
</g>
<g clip-path="url(#clip7_2839_913)">
<path d="M102.263 278.756C95.0164 278.756 89.1211 284.651 89.1211 291.898C89.1211 300.89 100.882 314.093 101.382 314.65C101.853 315.174 102.674 315.173 103.143 314.65C103.644 314.093 115.405 300.89 115.405 291.898C115.404 284.651 109.509 278.756 102.263 278.756ZM102.263 298.509C98.617 298.509 95.651 295.543 95.651 291.898C95.651 288.252 98.6171 285.286 102.263 285.286C105.909 285.286 108.875 288.252 108.875 291.898C108.875 295.543 105.909 298.509 102.263 298.509Z" fill="#94D4FF"/>
</g>
<defs>
<clipPath id="clip0_2839_913">
<rect width="36.2869" height="36.2869" fill="white" transform="translate(218.546 357.103)"/>
</clipPath>
<clipPath id="clip1_2839_913">
<rect width="36.2869" height="36.2869" fill="white" transform="translate(288.646 233.397)"/>
</clipPath>
<clipPath id="clip2_2839_913">
<rect width="36.2869" height="36.2869" fill="white" transform="translate(427.196 121.238)"/>
</clipPath>
<clipPath id="clip3_2839_913">
<rect width="36.2869" height="36.2869" fill="white" transform="translate(161.642 85.7756)"/>
</clipPath>
<clipPath id="clip4_2839_913">
<rect width="36.2869" height="36.2869" fill="white" transform="translate(93.1914 3.3053)"/>
</clipPath>
<clipPath id="clip5_2839_913">
<rect width="36.2869" height="36.2869" fill="white" transform="translate(0 52.7874)"/>
</clipPath>
<clipPath id="clip6_2839_913">
<rect width="36.2869" height="36.2869" fill="white" transform="translate(67.626 152.577)"/>
</clipPath>
<clipPath id="clip7_2839_913">
<rect width="36.2869" height="36.2869" fill="white" transform="translate(84.1191 278.756)"/>
</clipPath>
</defs>
</svg>
