<svg width="1920" height="1223" viewBox="0 0 1920 1223" fill="none" xmlns="http://www.w3.org/2000/svg">
<path opacity="0.15" d="M2297.35 248.887L2306.69 260.098L2288.63 265.081L2273.68 271.933L2236.93 276.916L2203.92 285.013L2188.97 302.453L2200.8 319.271L2209.52 339.203L2197.07 356.02L2202.05 371.591L2196.44 385.918L2164.05 384.672L2183.36 410.832L2164.05 421.421L2155.33 445.09L2162.18 469.382L2150.97 480.593L2137.89 476.856L2112.98 482.462L2111.73 493.05H2086.19L2071.87 516.097L2076.85 549.731L2035.74 566.549L2011.45 562.812L2005.84 571.532L1984.67 566.549L1951.65 572.777L1891.86 552.223L1916.15 516.097L1909.3 490.559L1882.51 483.707L1875.04 458.17L1858.22 426.404L1868.19 404.604L1852.62 398.375L1855.73 369.1L1859.47 319.271L1896.22 334.842L1920.51 329.237L1923 311.174L1947.92 305.568L1964.11 293.11L1962.87 261.344L1989.03 253.247L1990.89 239.544L2008.96 250.133L2018.92 251.378H2037.61L2064.39 260.098L2075.61 264.459L2096.78 252.001L2109.86 259.476L2115.47 241.412L2135.4 242.035L2139.14 236.43L2137.89 220.235L2148.48 206.532L2169.04 215.252L2168.41 227.709L2179 229.578L2184.61 263.213L2201.43 276.293L2210.77 267.573L2224.47 263.836L2240.04 245.773L2263.71 248.887H2297.35Z" stroke="white" stroke-linecap="round" stroke-linejoin="round"/>
<path opacity="0.15" d="M459.872 39.6052L462.363 47.0796L471.084 43.3425L478.558 53.9312L486.656 58.2912L490.393 72.6172L487.278 86.3202L493.507 103.138L507.833 112.481L508.456 123.069L497.867 128.675L497.244 141.755L483.541 161.064L477.935 158.573L476.689 149.853L457.38 136.15L453.02 117.464L453.643 90.0574L456.757 78.2229L451.151 71.9943L448.037 58.9141L459.872 39.6052Z" stroke="white" stroke-linecap="round" stroke-linejoin="round"/>
<path opacity="0.15" d="M1756.69 716.66L1764.79 748.426H1747.35V774.586L1754.2 780.192L1739.25 788.289L1740.5 804.484L1732.4 820.678V836.873L1726.17 845.593L1620.91 825.661L1604.09 784.552L1602.22 775.832L1607.83 773.34L1610.32 784.552L1636.48 778.324L1665.13 779.569L1686.31 780.815L1706.86 753.409L1729.91 727.871L1748.6 702.957L1756.69 716.66Z" stroke="white" stroke-linecap="round" stroke-linejoin="round"/>
<path opacity="0.15" d="M1349.33 195.322L1338.12 196.567L1320.68 173.521L1319.44 167.293H1305.11L1293.28 156.704L1287.05 157.327L1272.1 146.115L1245.94 136.149L1245.31 116.84L1237.22 103.137L1280.82 96.9087L1289.54 106.875L1303.24 113.726L1298.88 123.692L1318.81 137.395L1311.96 150.475L1328.16 161.064L1343.73 167.293L1349.33 195.322Z" stroke="white" stroke-linecap="round" stroke-linejoin="round"/>
<path opacity="0.15" d="M1338.12 196.567L1314.45 190.962L1294.52 172.898L1287.05 157.327L1293.28 156.704L1305.11 167.293H1319.44L1320.68 173.521L1338.12 196.567Z" stroke="white" stroke-linecap="round" stroke-linejoin="round"/>
<path opacity="0.15" d="M1377.36 90.6792L1392.94 74.4847L1414.74 95.0392L1437.16 123.691L1452.73 125.56L1464.57 136.148L1438.4 139.263L1439.03 170.406L1436.54 184.109L1425.95 193.452L1430.93 212.761L1422.83 215.253L1398.54 194.075L1406.02 174.766L1394.18 162.932L1382.35 166.046L1349.33 195.321L1343.73 167.292L1328.16 161.063L1311.96 150.474L1318.81 137.394L1298.88 123.691L1303.24 113.725L1289.54 106.874L1280.82 96.9078L1287.67 90.0564L1313.83 101.891L1331.89 103.759L1335.63 99.3994L1315.08 77.599L1322.55 72.6161L1331.89 73.8618L1358.68 97.5307L1373.63 100.645L1377.36 90.6792Z" stroke="white" stroke-linecap="round" stroke-linejoin="round"/>
<path opacity="0.15" d="M737.673 -0.259742L723.347 15.9347L715.25 43.9637L728.33 66.3869L699.678 61.404L668.534 73.8613L670.403 93.793L641.75 97.5303L617.459 83.2043L592.544 94.4159L568.875 93.1702L563.891 67.0098L546.451 53.9296L550.811 48.9467L547.074 43.9637L550.811 31.5064L562.023 19.0491L544.582 2.23169L540.223 -12.7171L547.074 -21.4373L558.286 -5.24269L570.12 -7.73421L595.035 -2.12836L642.374 0.363068L656.7 -9.60274L693.449 -18.9457L718.364 -4.61988L737.673 -0.259742Z" stroke="white" stroke-linecap="round" stroke-linejoin="round"/>
<path opacity="0.15" d="M428.729 -45.7273L440.564 -46.3502L433.712 -28.9099L450.53 -13.3383L447.415 4.72482L440.564 6.59344L434.958 10.3307L424.992 19.6737L422.5 41.474L392.602 26.5251L379.522 9.70777L366.442 0.987682L350.87 -13.9612L342.772 -25.7956L325.955 -44.4816L330.938 -60.6761L343.396 -51.3332L349.625 -60.0532L363.95 -60.6761L391.979 -53.8246L413.78 -54.4475L428.729 -45.7273Z" stroke="white" stroke-linecap="round" stroke-linejoin="round"/>
<path opacity="0.15" d="M104.835 267.573L98.6066 288.128L104.835 326.122L97.9839 359.134L78.0515 381.557L81.7894 411.455L109.819 435.747L110.441 445.09L131.619 461.284L147.814 532.914L159.648 568.417L162.139 587.103L157.157 619.492L159.648 638.178L155.911 659.979L159.648 684.893L145.945 701.711L167.123 730.986L168.368 747.803L181.449 770.226L197.021 762.752L225.05 781.438L240.622 806.352L123.522 882.965L23.8619 961.446L-24.7221 978.886L-63.3403 983.246L-63.963 957.709L-80.1579 950.857L-101.958 939.646L-110.056 920.96L-226.533 833.758L-342.387 746.557L-470.076 649.39L-469.453 641.916L-468.83 639.424L-468.208 592.086L-412.772 562.189L-379.137 555.96L-351.108 545.371L-338.027 525.44L-298.163 509.868L-296.295 479.97L-276.986 476.233L-261.414 461.907L-217.19 455.056L-210.961 439.484L-219.681 430.764L-231.516 388.409L-233.384 364.117L-245.219 338.58L-213.452 316.779L-177.326 309.928L-156.771 293.733L-125.005 281.276L-68.9463 274.425L-14.1332 271.31L2.68408 276.916L33.205 261.344L68.7084 260.721L82.4121 270.064L104.835 267.573Z" stroke="white" stroke-linecap="round" stroke-linejoin="round"/>
<path opacity="0.15" d="M983.708 496.789L1008 555.339L1012.36 565.305L1004.26 581.499L999.903 611.397L992.429 632.574L984.954 639.426L972.497 626.346L955.679 608.905L926.404 551.602L923.29 555.339L940.73 597.071L965.022 637.557L995.543 699.844L1009.87 721.644L1022.33 744.067L1055.96 788.291L1049.73 795.142L1052.22 821.303L1094.58 857.429L1101.43 865.526H963.777H829.859H690.958L684.729 717.907L676.632 575.893L664.175 543.504L671.026 519.212L664.798 501.772L675.386 482.463L720.233 481.84L753.868 492.429L788.126 504.264L804.321 510.492L829.236 498.035L842.316 486.823L871.591 483.086L895.883 488.069L907.095 508.001L913.947 494.921L941.353 504.264L968.136 506.755L983.708 496.789Z" stroke="white" stroke-linecap="round" stroke-linejoin="round"/>
<path opacity="0.15" d="M1337.5 1237.37L1326.91 1247.34L1311.96 1243.6L1299.51 1230.52L1283.93 1207.48L1267.74 1194.4L1258.4 1180.69L1227.25 1164.5L1202.96 1163.88L1194.24 1155.78L1174.31 1165.12L1151.88 1147.06L1142.54 1176.96L1101.43 1168.24L1097.07 1152.67L1109.53 1093.49L1111.4 1067.33L1121.99 1054.88L1146.9 1048.02L1163.72 1025.6L1186.14 1071.69L1197.98 1108.44L1217.91 1127.75L1267.74 1165.75L1288.29 1188.17L1308.23 1211.84L1319.44 1225.54L1337.5 1237.37Z" stroke="white" stroke-linecap="round" stroke-linejoin="round"/>
<path opacity="0.15" d="M1202.96 1163.88L1227.25 1164.5L1258.39 1180.7L1267.74 1194.4L1283.93 1207.48L1299.5 1230.53L1311.96 1243.61L1300.13 1261.05L1288.92 1279.73L1292.03 1290.94L1293.28 1303.4L1313.21 1304.02L1321.31 1300.91L1329.4 1308.38L1321.93 1322.09L1335.63 1344.51L1349.33 1363.82L1363.04 1378.14L1479.51 1425.48L1509.41 1424.86L1412.24 1545.07L1366.77 1546.94L1335.63 1574.97L1313.21 1575.59L1303.86 1588.67H1279.57L1265.25 1574.97L1232.86 1591.79L1222.89 1608.61L1199.22 1604.87L1191.12 1600.51L1183.03 1601.75L1171.82 1601.13L1126.97 1567.5H1102.05L1090.22 1554.42L1089.6 1531.99L1071.53 1525.14L1049.73 1481.54L1033.54 1472.2L1027.31 1456L1008.62 1436.69L986.822 1433.58L998.657 1411.16L1017.34 1409.91L1022.33 1398.08L1021.08 1366.93V1361.95L1030.42 1320.22L1046.62 1309.01L1049.73 1292.81L1064.06 1261.67L1084.61 1242.36L1097.07 1202.5L1101.43 1168.24L1142.54 1176.96L1151.88 1147.06L1174.31 1165.12L1194.24 1155.78L1202.96 1163.88Z" stroke="white" stroke-linecap="round" stroke-linejoin="round"/>
<path opacity="0.15" d="M1255.28 38.9805L1287.05 47.0777L1300.13 63.2723L1322.55 72.6153L1315.08 77.5982L1335.63 99.3986L1331.89 103.759L1313.83 101.89L1287.67 90.0556L1280.82 96.907L1237.22 103.136L1202.34 83.204L1168.08 85.0726L1169.95 68.2552L1156.87 41.472L1135.69 26.5231L1117 22.1631L1103.3 10.3287L1105.79 5.3457L1134.44 12.1973L1182.4 18.4259L1229.74 37.7347L1237.22 45.2091L1255.28 38.9805Z" stroke="white" stroke-linecap="round" stroke-linejoin="round"/>
<path opacity="0.15" d="M613.722 317.401L633.031 331.104L658.569 328.613L683.484 331.104V338.579L700.924 333.596L697.81 345.43L650.471 348.545L649.849 342.316L608.739 334.219L613.722 317.401Z" stroke="white" stroke-linecap="round" stroke-linejoin="round"/>
<path opacity="0.15" d="M671.027 113.725L651.094 112.48L634.277 108.743L595.659 118.708L620.574 141.132L605.002 147.983H586.939L567.63 127.429L562.024 136.149L571.99 159.818L590.053 178.504L578.218 187.224L598.15 205.287L615.591 217.121L618.082 239.545L586.939 228.956L598.15 249.51L577.596 253.247L593.167 288.751L571.367 289.374L542.715 271.933L527.766 240.167L519.668 213.384L505.343 195.321L486.656 172.275L483.542 161.063L497.245 141.754L497.868 128.674L508.457 123.068L507.833 112.48L529.011 109.365L540.223 100.645L557.663 101.268L562.647 94.4167L568.875 93.171L592.545 94.4167L617.46 83.2051L641.751 97.531L670.404 93.7938L668.535 73.8621L685.352 84.4508L678.501 109.365L671.027 113.725Z" stroke="white" stroke-linecap="round" stroke-linejoin="round"/>
<path opacity="0.15" d="M419.385 -87.4622L428.728 -71.8905L439.317 -60.679L428.728 -45.7301L413.779 -54.4503L391.979 -53.8274L363.949 -60.679L349.624 -60.0561L343.395 -51.336L330.937 -60.679L325.954 -44.4844L342.771 -25.7984L350.869 -13.964L366.441 0.98484L379.521 9.70493L392.601 26.5223L422.499 41.4712L419.385 47.6998L388.241 33.3739L368.31 19.0479L338.412 7.2135L309.137 -21.4384L315.366 -24.5527L299.794 -41.3701L297.925 -54.4503L277.37 -60.679L268.65 -43.8615L258.684 -56.9418V-70.6448L259.307 -71.2677L281.73 -70.022L286.713 -76.2506L297.925 -70.022L310.382 -69.3991L309.76 -79.9878L320.348 -84.3478L322.217 -99.9195L346.509 -110.508L356.475 -105.525L381.39 -88.708L408.173 -81.2335L419.385 -87.4622Z" stroke="white" stroke-linecap="round" stroke-linejoin="round"/>
<path opacity="0.15" d="M1338.12 196.565L1349.34 195.32L1382.35 166.045L1394.18 162.931L1406.02 174.765L1398.54 194.074L1422.83 215.251L1430.93 212.76L1446.5 242.657L1479.52 250.755L1506.3 270.686L1554.26 277.538L1604.09 266.949L1605.34 257.606L1632.74 250.132L1651.43 227.086L1673.85 228.331L1686.31 220.857L1710.6 224.594L1751.71 245.149L1778.49 249.509L1823.96 284.389L1848.88 286.258L1859.47 319.27L1855.73 369.099L1852.62 398.374L1868.19 404.603L1858.22 426.403L1875.04 458.169L1882.51 483.707L1909.3 490.558L1916.15 516.096L1891.86 552.222L1911.79 573.4L1929.23 597.691L1964.73 615.131L1970.96 650.012L1987.78 656.864L1993.39 674.927L1946.67 696.104L1939.82 742.196L1873.79 730.362L1835.18 721.019L1795.94 716.036L1775.38 666.829L1757.94 659.978L1732.4 666.829L1700.64 686.138L1657.03 673.058L1619.04 641.915L1584.78 630.703L1557.37 592.708L1524.99 539.765L1507.54 545.993L1484.5 532.913L1473.91 548.485L1452.11 527.307L1449 506.13H1438.41L1439.65 476.855L1417.85 446.958L1373.63 424.534L1344.97 386.54L1348.09 355.396L1362.42 341.693L1356.81 318.647L1333.14 306.19L1303.87 258.852L1280.2 227.086L1284.56 214.628L1266.49 169.159L1287.05 157.325L1294.52 172.896L1314.45 190.96L1338.12 196.565Z" stroke="white" stroke-linecap="round" stroke-linejoin="round"/>
<path opacity="0.15" d="M1303.86 258.852L1333.14 306.19L1356.81 318.648L1362.41 341.694L1348.09 355.397L1344.97 386.54L1373.63 424.535L1417.85 446.958L1439.65 476.856L1438.4 506.13H1448.99L1452.11 527.308L1473.91 548.485L1453.35 546.617L1430.31 542.879L1409.75 581.497L1346.22 578.383L1241.58 498.033L1188.01 470.004L1145.65 458.792L1126.35 410.209L1194.86 368.477L1201.09 320.516L1193.62 291.241L1210.43 281.276L1223.51 256.361L1236.59 250.132L1275.84 255.738L1288.92 265.704L1303.86 258.852Z" stroke="white" stroke-linecap="round" stroke-linejoin="round"/>
<path opacity="0.15" d="M1027.31 414.57L1029.8 430.764L1026.06 436.993H1026.69L1022.33 449.45L1009.25 444.467L1004.89 470.628L1014.23 474.988L1006.13 480.594L1005.51 491.182L1021.08 486.2L1023.57 501.771L1012.36 565.303L1008 555.338L983.708 496.788L992.428 483.708L989.937 481.217L996.788 462.531L1000.53 432.633L1004.26 422.044H1004.89H1016.1L1018.59 415.193L1027.31 414.57Z" stroke="white" stroke-linecap="round" stroke-linejoin="round"/>
<path opacity="0.15" d="M336.543 216.498L325.955 248.264L331.561 260.098L325.955 280.653L299.794 265.704L282.976 261.344L236.261 241.412L239.375 220.858L277.994 224.595L311.628 220.235L336.543 216.498Z" stroke="white" stroke-linecap="round" stroke-linejoin="round"/>
<path opacity="0.15" d="M124.766 98.1532L145.321 126.182L142.83 179.126L127.881 176.634L114.801 189.715L102.343 179.126L99.2287 131.165L91.1318 108.742L109.195 110.611L124.766 98.1532Z" stroke="white" stroke-linecap="round" stroke-linejoin="round"/>
<path opacity="0.15" d="M259.93 -110.509L257.438 -91.1996L266.159 -74.3823L240.621 -80.6109L216.329 -66.285L218.821 -46.9761L215.706 -35.7646L227.54 -15.8328L258.684 4.09895L276.747 37.1109L314.742 68.877L339.657 68.2542L348.378 76.9743L339.657 85.0716L369.556 99.3975L394.47 111.232L423.745 132.409L427.483 139.261L422.5 153.587L403.191 134.901L374.539 128.672L362.704 154.21L386.996 169.159L384.505 189.713L371.424 192.205L355.853 226.462L342.149 229.577L341.526 217.119L347.132 195.942L353.984 187.222L339.657 164.176L328.446 144.244L314.742 139.261L303.531 122.444L282.353 114.969L267.404 98.7746L243.736 96.2832L216.952 78.8429L186.431 52.6825L163.385 30.2593L151.55 -8.98128L135.356 -13.3413L109.194 -26.4216L94.8688 -21.4386L76.8053 -2.75262L63.7251 -0.261094L66.8395 -17.0786L49.3988 -22.0614L40.0557 -52.5819L50.6446 -64.4164L41.3015 -79.3652L41.9246 -90.5767L55.6275 -81.8566L71.1993 -83.7252L88.0173 -97.4283L93.6226 -91.1996L108.572 -92.4453L114.8 -108.017L138.47 -103.034L151.55 -109.886L153.419 -125.457L172.728 -119.852L175.842 -127.326L206.363 -134.177L214.46 -121.097L259.93 -110.509Z" stroke="white" stroke-linecap="round" stroke-linejoin="round"/>
<path opacity="0.15" d="M1145.66 458.794L1140.05 465.022L1075.27 484.954L1112.64 525.44L1102.68 531.669L1098.32 545.372L1072.78 550.978L1065.93 565.304L1052.85 577.761L1014.23 570.91L1012.36 565.304L1023.57 501.772L1021.08 486.2L1024.82 474.365L1022.33 449.451L1026.69 436.993L1065.93 453.188L1126.35 410.21L1145.66 458.794Z" stroke="white" stroke-linecap="round" stroke-linejoin="round"/>
<path opacity="0.15" d="M2018.92 -380.83L2046.33 -382.699L2103.63 -418.825L2098.65 -406.367L2150.97 -377.093L2264.96 -279.926L2271.81 -299.857L2324.13 -278.057L2362.75 -288.023L2383.3 -281.171L2408.84 -258.748L2433.76 -251.274L2454.31 -234.456L2491.68 -240.062L2519.09 -216.393L2507.26 -190.233L2483.59 -186.496L2499.16 -147.878L2489.19 -129.815L2421.92 -142.895L2428.15 -72.5111L2415.69 -63.791L2359.01 -48.2193L2413.82 20.296L2395.76 30.2619L2406.35 53.3079L2384.55 47.0793L2363.37 32.7533L2314.16 29.0162L2260.6 27.7705L2250.63 32.1305L2199.56 15.3131L2183.98 24.0332L2187.1 47.0793L2129.79 33.3762L2110.49 38.982L2108.62 56.4223L2092.42 63.8966L2058.79 91.3028L2053.18 119.955H2040.72L2026.4 101.269L1984.67 100.023L1969.09 67.6339L1952.9 67.011L1943.56 27.1476L1896.22 -1.50434L1842.65 1.60999L1807.15 7.21585L1766.04 -28.2875L1736.14 -43.2364L1678.83 -71.2653L1671.98 -74.3797L1597.24 -51.3336L1635.86 94.4171L1619.66 96.2858L1589.76 65.1424L1565.47 53.9308L1530.59 62.0281L1519.38 75.7311L1515.64 65.7652L1519.38 49.5708L1510.04 35.8676L1469.55 22.1646L1446.5 -13.3388L1426.57 -23.3047L1422.83 -36.3848L1454.6 -32.6477L1448.37 -61.2995L1473.91 -67.5281L1503.18 -61.9224L1498.82 -99.9171L1486.99 -124.209L1455.85 -122.34L1426.57 -131.683L1394.8 -114.866L1367.4 -106.146L1349.96 -112.997L1348.71 -132.929L1321.93 -159.089L1299.51 -157.844L1266.49 -184.004L1277.08 -213.902L1265.87 -221.376L1279.57 -264.354L1316.95 -241.931L1313.21 -269.96L1363.66 -311.692L1411 -312.938L1485.74 -286.154L1526.85 -270.583L1554.26 -286.777L1602.22 -287.4L1647.69 -267.468L1652.67 -279.303L1696.28 -277.434L1697.52 -295.497L1638.97 -322.281L1660.77 -340.966L1651.43 -350.932L1676.34 -360.898L1644.58 -387.059L1653.3 -400.139L1759.19 -413.219L1769.77 -422.562L1837.67 -436.888L1856.98 -452.46L1913.66 -444.362L1941.06 -405.122L1967.85 -414.465L2012.07 -401.385L2018.92 -380.83Z" stroke="white" stroke-linecap="round" stroke-linejoin="round"/>
<path opacity="0.15" d="M1453.36 546.616L1462.7 564.056L1460.83 573.399L1475.78 603.297L1451.49 604.543L1440.9 585.234L1409.75 581.497L1430.31 542.879L1453.36 546.616Z" stroke="white" stroke-linecap="round" stroke-linejoin="round"/>
<path opacity="0.15" d="M1027.31 414.569L1018.59 415.192L1016.1 422.044H1004.89L1012.98 389.032L1026.69 361.003V359.757L1042.26 361.626L1049.73 377.197L1032.92 392.769L1027.31 414.569Z" stroke="white" stroke-linecap="round" stroke-linejoin="round"/>
<path opacity="0.15" d="M675.386 482.461L664.798 501.77L671.026 519.21L664.175 543.502L676.632 575.891L684.729 717.904L690.958 865.524L694.072 945.251H654.208V962.068L513.439 885.455L373.293 808.843L339.035 830.643L315.366 845.592L295.434 823.792L240.621 806.351L225.05 781.437L197.02 762.751L181.449 770.225L168.368 747.802L167.122 730.985L145.944 701.71L159.648 684.893L155.91 659.978L159.648 638.178L157.156 619.492L162.139 587.102L159.648 568.416L147.813 532.913L164.008 524.193L166.499 506.753L162.762 490.558L185.186 474.986L195.151 461.906L211.346 450.695L211.969 420.174L251.833 433.877L266.159 430.14L294.188 436.992L339.658 455.055L357.098 490.558L387.619 498.033L436.203 514.85L473.575 534.782L489.147 524.193L504.719 506.13L494.753 475.609L504.096 455.678L527.143 436.992L550.189 432.009L596.282 440.106L608.739 457.546L621.197 458.169L632.408 465.021L666.043 469.381L675.386 482.461Z" stroke="white" stroke-linecap="round" stroke-linejoin="round"/>
<path opacity="0.15" d="M568.875 93.1714L562.646 94.4171L557.662 101.269L540.223 100.646L529.01 109.366L507.833 112.48L493.507 103.137L487.278 86.3198L490.393 72.6168L494.752 73.2396L495.375 65.1424L513.439 58.9137L520.914 57.0451L531.502 55.1765L546.451 53.9308L563.891 67.0109L568.875 93.1714Z" stroke="white" stroke-linecap="round" stroke-linejoin="round"/>
<path opacity="0.15" d="M476.067 34.6205L471.084 43.3407L462.364 47.0779L459.872 39.6035L448.038 58.9124L451.152 71.9925L444.301 68.8782L433.712 55.7981L419.386 47.7008L422.5 41.4721L424.992 19.6718L434.958 10.3288L440.564 6.59155L449.284 13.4431L454.889 19.0489L465.478 23.4089L478.559 31.5062L476.067 34.6205Z" stroke="white" stroke-linecap="round" stroke-linejoin="round"/>
<path opacity="0.15" d="M339.034 830.644L349 892.93L362.704 903.519L363.327 915.977L378.276 929.68L370.801 947.12L359.59 1028.09L358.343 1080.41L314.742 1117.79L300.417 1170.73L315.366 1185.68V1211.22L338.412 1211.84L334.675 1231.15L325.332 1233.02L324.085 1246.1L317.857 1246.72L293.565 1203.12L284.845 1201.25L258.061 1223.67L230.654 1211.84L211.968 1209.97L202.002 1215.58L181.448 1214.33L160.893 1231.15L142.829 1232.39L100.475 1211.84L83.6565 1221.18L65.5931 1220.56L52.5129 1205.61L17.6322 1190.66L-20.3629 1195.64L-29.0833 1203.74L-34.0662 1226.79L-44.0324 1242.98L-46.5237 1279.11L-73.3071 1256.06H-85.7646L-97.5993 1267.9L-96.9766 1240.49L-137.463 1231.15L-138.709 1211.84L-158.018 1185.68L-163.001 1167.61L-159.887 1148.31L-137.463 1146.44L-125.006 1132.11L-77.0446 1129L-45.901 1122.77L-43.4093 1097.85L-24.1004 1071.07L-24.7231 978.886L23.8609 961.446L123.521 882.965L240.621 806.352L295.433 823.792L315.366 845.593L339.034 830.644Z" stroke="white" stroke-linecap="round" stroke-linejoin="round"/>
<path opacity="0.15" d="M324.086 1246.1L338.412 1261.67L334.675 1269.14L332.806 1282.22L303.531 1313.37L294.811 1338.9L289.828 1359.46L282.353 1368.8L275.502 1396.83L256.816 1413.02L251.833 1432.96L243.736 1449.15L240.621 1465.97L216.329 1479.67L196.397 1462.85L183.317 1463.48L162.139 1487.15H152.173L135.356 1525.76L126.635 1554.42L89.8856 1568.74L76.8054 1566.87L63.1025 1575.59L35.0729 1574.97L15.764 1549.43L3.92925 1520.78L-20.9857 1494.62H-47.1464H-78.29L-76.4211 1430.47L-77.6669 1404.93L-70.8155 1380.01L-60.2266 1367.56L-42.7862 1342.64L-46.5233 1332.05L-39.6718 1315.86L-47.7691 1292.19L-46.5233 1279.11L-44.032 1242.98L-34.0658 1226.79L-29.0829 1203.74L-20.3626 1195.64L17.6325 1190.66L52.5133 1205.61L65.5934 1220.56L83.6569 1221.18L100.475 1211.84L142.83 1232.39L160.893 1231.15L181.448 1214.33L202.003 1215.58L211.969 1209.97L230.655 1211.84L258.061 1223.67L284.845 1201.25L293.565 1203.12L317.857 1246.72L324.086 1246.1Z" stroke="white" stroke-linecap="round" stroke-linejoin="round"/>
<path opacity="0.15" d="M1679.46 1079.17L1665.75 1051.14L1633.36 985.116L1734.89 945.252L1751.09 865.526L1732.4 836.874V820.679L1740.5 804.484L1739.25 788.29L1754.2 780.193L1747.35 774.587V748.427H1764.79L1783.48 775.833L1804.03 790.159L1829.57 795.764L1850.75 802.616L1868.81 825.662L1879.4 838.742L1891.86 844.348L1893.1 853.068L1882.51 876.737L1878.15 887.949L1864.45 901.029L1853.86 928.435L1838.29 925.943L1832.06 935.909L1827.7 955.841L1834.55 982.624L1831.44 987.607H1815.87L1795.31 1002.56L1793.44 1021.86L1785.97 1030.59L1764.17 1029.96L1751.71 1039.93L1752.96 1056.12L1736.76 1067.33L1717.45 1063.6L1695.03 1077.3L1679.46 1079.17Z" stroke="white" stroke-linecap="round" stroke-linejoin="round"/>
<path opacity="0.15" d="M1756.69 716.659L1748.6 702.956L1757.32 689.876L1761.68 692.99L1760.43 709.807L1756.69 716.659Z" stroke="white" stroke-linecap="round" stroke-linejoin="round"/>
<path opacity="0.15" d="M2413.2 325.499L2389.53 359.133L2354.03 365.362L2301.08 355.396L2288.63 372.837L2309.18 407.717L2327.25 435.123L2359.01 454.432L2335.34 477.478L2341.57 506.13L2317.28 546.616L2303.58 587.103L2275.55 628.835L2235.06 625.72L2204.54 668.075L2229.45 685.516L2238.17 716.659L2259.98 736.591L2271.19 770.848H2195.82L2175.89 797.632L2149.73 787.666L2136.02 759.014L2105.5 728.493L2043.22 735.968L1987.16 736.591L1939.82 742.196L1946.67 696.104L1993.39 674.927L1987.78 656.864L1970.96 650.012L1964.73 615.132L1929.23 597.691L1911.79 573.4L1891.86 552.222L1951.65 572.777L1984.67 566.548L2005.84 571.531L2011.45 562.811L2035.74 566.548L2076.85 549.731L2071.87 516.096L2086.19 493.05H2111.73L2112.98 482.461L2137.89 476.855L2150.97 480.592L2162.18 469.381L2155.33 445.089L2164.05 421.42L2183.36 410.832L2164.05 384.671L2196.44 385.917L2202.05 371.591L2197.07 356.019L2209.52 339.202L2200.8 319.27L2188.97 302.453L2203.92 285.012L2236.93 276.915L2273.68 271.932L2288.63 265.081L2306.69 260.098L2335.97 278.784L2354.03 309.927L2413.2 325.499Z" stroke="white" stroke-linecap="round" stroke-linejoin="round"/>
<path opacity="0.15" d="M1022.33 449.45L1024.82 474.364L1021.08 486.199L1005.51 491.182L1006.13 480.593L1014.23 474.987L1004.89 470.627L1009.25 444.467L1022.33 449.45Z" stroke="white" stroke-linecap="round" stroke-linejoin="round"/>
<path opacity="0.15" d="M1594.12 760.259L1584.78 763.374L1573.57 755.276L1568.59 726.002L1575.44 705.447L1584.78 701.087L1595.99 713.544L1599.11 736.59L1594.12 760.259Z" stroke="white" stroke-linecap="round" stroke-linejoin="round"/>
<path opacity="0.15" d="M652.34 -177.776L662.306 -173.416L673.518 -162.204L685.976 -146.01L707.153 -122.341L710.891 -105.524L709.644 -88.7063L717.742 -70.6431L732.691 -63.1687L747.017 -70.0203L761.966 -63.1687L764.458 -52.58L750.131 -44.4828L740.165 -48.22L737.674 -0.259201L718.365 -4.61934L693.45 -18.9452L656.7 -9.6022L642.375 0.363608L595.036 -2.12782L570.121 -7.73367L558.287 -5.24215L547.075 -21.4367L540.846 -28.2882L547.075 -35.1398L538.977 -39.4998L529.634 -30.7797L510.325 -42.6141L505.965 -58.8087L486.033 -67.5288L481.05 -80.609L462.364 -95.5578L486.656 -103.032L502.851 -129.815L514.686 -155.976L532.748 -164.073L545.206 -172.793L565.138 -168.433H585.07L600.642 -158.467L610.608 -164.696L633.032 -168.433L639.26 -177.776H652.34Z" stroke="white" stroke-linecap="round" stroke-linejoin="round"/>
<path d="M1409.75 581.498L1440.9 585.236L1451.49 604.545L1475.78 603.299L1492.6 638.179L1510.66 646.899L1518.13 661.225L1543.05 678.043L1547.41 694.237L1544.92 707.94L1550.52 721.021L1561.73 732.232L1567.34 745.312L1573.57 755.278L1584.78 763.376L1594.12 760.261L1602.22 775.833L1604.09 784.553L1620.91 825.662L1726.17 845.594L1732.4 836.874L1751.09 865.526L1734.89 945.252L1633.36 985.116L1534.33 1000.69L1503.18 1018.75L1481.38 1060.48L1465.19 1067.33L1455.85 1054.25L1442.77 1056.12L1408.51 1051.76L1401.66 1048.03L1361.79 1048.65L1352.45 1052.39L1337.5 1042.42L1329.4 1061.73L1334.39 1078.55L1319.44 1091.63L1313.83 1074.19L1302.62 1062.35L1299.5 1046.16L1280.2 1031.83L1259.64 998.196L1247.81 965.807L1222.27 938.401L1206.7 931.549L1181.16 893.555L1175.55 866.149V842.479L1153.13 797.633L1135.69 782.062L1117 773.964L1103.92 750.918L1105.17 742.198L1093.96 721.021L1083.37 712.3L1067.8 682.403L1044.13 650.637L1024.82 623.231H1008L1011.11 601.43L1011.74 587.104L1014.23 570.91L1052.85 577.761L1065.93 565.304L1072.78 550.978L1098.32 545.372L1102.68 531.669L1112.64 525.44L1075.27 484.954L1140.05 465.022L1145.65 458.794L1188.01 470.005L1241.58 498.034L1346.22 578.384L1409.75 581.498Z" stroke="white" stroke-width="1.5" stroke-linecap="round" stroke-linejoin="round"/>
<path opacity="0.15" d="M1101.43 1168.24L1097.07 1202.5L1084.61 1242.36L1064.06 1261.67L1049.73 1292.81L1046.62 1309.01L1030.42 1320.22L1021.08 1361.95V1366.93L1016.1 1365.69L1016.72 1345.76L1011.74 1332.05L993.674 1316.48L988.068 1287.83L991.805 1257.93L975.611 1255.44L973.119 1264.16L951.941 1266.65L961.285 1277.86L964.399 1302.16L945.713 1323.96L928.895 1352.61L910.832 1356.97L880.934 1333.92L867.854 1342.02L864.739 1353.23L846.676 1361.33L845.43 1369.43H810.55L805.566 1361.33L780.029 1359.46L767.571 1366.31L757.605 1363.2L739.542 1339.53L733.313 1328.94L707.776 1334.54L698.433 1352.61L690.335 1388.73L677.877 1396.21L667.289 1400.57L664.175 1398.7L652.34 1386.87L649.848 1374.41L654.831 1358.21V1341.4L634.276 1316.48L629.917 1299.66V1289.7L616.836 1277.86L616.213 1254.82L608.116 1239.25L596.281 1241.74L599.396 1226.79L608.116 1210.59L603.755 1193.78L614.967 1181.32L607.493 1171.98L615.59 1147.68L631.162 1117.79L661.06 1120.9L654.208 962.071V945.253H694.072L690.958 865.526H829.859H963.776H1101.43L1114.51 904.767L1107.04 911.618L1114.51 953.351L1130.08 1000.69L1143.79 1010.65L1163.72 1025.6L1146.9 1048.03L1121.99 1054.88L1111.4 1067.34L1109.53 1093.5L1097.07 1152.67L1101.43 1168.24Z" stroke="white" stroke-linecap="round" stroke-linejoin="round"/>
<path opacity="0.15" d="M547.075 -21.4377L540.223 -12.7175L544.583 2.23125L562.024 19.0486L550.812 31.5059L547.075 43.9633L550.812 48.9462L546.452 53.9292L531.503 55.1749L520.914 57.0435L519.045 53.9292L522.782 49.5691L525.274 39.6032L520.914 40.2261L514.062 32.7517L508.457 30.8831L503.474 24.6545L497.245 22.163L492.262 16.5572L486.656 19.0486L483.542 32.1289L476.067 34.6203L478.559 31.5059L465.478 23.4087L454.889 19.0486L449.284 13.4429L440.564 6.59129L447.415 4.72267L450.529 -13.3404L433.712 -28.9121L440.564 -46.3523L428.729 -45.7294L439.317 -60.6783L428.729 -71.8898L419.386 -87.4615L442.432 -97.4274L462.364 -95.5588L481.05 -80.61L486.033 -67.5298L505.965 -58.8097L510.325 -42.6151L529.634 -30.7807L538.977 -39.5008L547.075 -35.1407L540.846 -28.2892L547.075 -21.4377Z" stroke="white" stroke-linecap="round" stroke-linejoin="round"/>
<path opacity="0.15" d="M1126.35 410.211L1065.93 453.189L1026.69 436.994H1026.06L1029.8 430.765L1027.31 414.571L1032.92 392.771L1049.73 377.199L1042.26 361.627L1026.69 359.759L1019.84 329.238L1026.06 312.421L1034.16 303.701L1041.64 294.981L1040.39 273.18L1052.23 280.655L1087.11 269.443L1105.79 276.917H1133.2L1168.7 261.969L1186.77 262.591L1223.52 256.363L1210.43 281.277L1193.62 291.243L1201.09 320.518L1194.86 368.479L1126.35 410.211Z" stroke="white" stroke-linecap="round" stroke-linejoin="round"/>
<path opacity="0.15" d="M654.208 962.07L661.061 1120.9L631.162 1117.79L615.591 1147.68L607.493 1171.98L614.968 1181.32L603.756 1193.78L608.116 1210.59L599.396 1226.79L596.282 1241.74L608.116 1239.25L616.213 1254.82L616.836 1277.86L629.917 1289.7V1299.66L607.493 1306.52L590.053 1322.71L565.138 1366.31L532.748 1385L498.49 1382.51L488.524 1386.24L492.261 1399.95L474.199 1414.27L459.25 1429.84L415.026 1444.79L406.305 1436.07L400.077 1434.83L393.848 1445.41L365.196 1448.53L370.178 1437.32L358.967 1409.91L353.984 1393.72L338.412 1386.87L317.234 1363.2L324.709 1344.51L340.904 1348.25L350.87 1345.76H370.801L350.87 1309.63L352.115 1282.85L349.001 1256.69L334.675 1231.15L338.412 1211.84L315.366 1211.22V1185.68L300.417 1170.73L314.743 1117.79L358.344 1080.41L359.59 1028.09L370.801 947.122L378.276 929.681L363.327 915.978L362.704 903.521L349.001 892.932L339.035 830.646L373.293 808.845L513.439 885.458L654.208 962.07Z" stroke="white" stroke-linecap="round" stroke-linejoin="round"/>
<path opacity="0.15" d="M2018.92 251.378L2008.96 250.132L1990.89 239.544L1989.03 253.247L1962.86 261.344L1964.11 293.11L1947.92 305.568L1923 311.173L1920.51 329.236L1896.22 334.842L1859.47 319.27L1848.88 286.259L1823.96 284.39L1778.49 249.51L1751.71 245.149L1710.6 224.595L1686.31 220.858L1673.85 228.332L1651.43 227.086L1632.74 250.132L1605.34 257.607L1593.5 229.578L1589.76 187.846L1561.11 174.143L1563.6 147.359L1541.8 144.868L1541.18 111.233L1574.19 121.199L1599.73 108.742L1570.45 84.4499L1555.51 62.0267L1531.84 71.9925L1535.57 101.267L1519.38 75.7298L1530.59 62.0267L1565.47 53.9294L1589.76 65.1411L1619.66 96.2844L1635.86 94.4158L1672.61 93.7928L1662.02 73.8611L1685.69 60.1581L1706.86 37.1121L1756.07 58.2895L1767.91 89.4328L1782.23 97.5301L1816.49 95.6615L1829.57 103.136L1856.35 144.245L1900.58 171.651L1926.74 190.337L1965.98 209.646L2013.94 227.086L2018.92 251.378Z" stroke="white" stroke-linecap="round" stroke-linejoin="round"/>
<path opacity="0.15" d="M211.968 420.174L211.346 450.695L195.151 461.906L185.185 474.986L162.762 490.558L166.499 506.753L164.008 524.193L147.813 532.913L131.618 461.284L110.441 445.089L109.818 435.746L81.7886 411.454L78.0508 381.556L97.9832 359.133L104.835 326.121L98.6059 288.127L104.835 267.572L140.338 252L163.385 256.36V276.915L190.791 261.966L193.282 269.441L177.71 289.372L178.334 307.435L190.168 317.401L187.054 352.282L165.253 372.214L172.728 394.014L190.168 394.637L198.888 413.946L211.968 420.174Z" stroke="white" stroke-linecap="round" stroke-linejoin="round"/>
<path opacity="0.15" d="M1168.08 85.0739L1202.34 83.2053L1237.22 103.137L1245.31 116.84L1245.94 136.149L1272.1 146.115L1287.05 157.326L1266.49 169.161L1284.56 214.63L1280.2 227.087L1303.87 258.854L1288.92 265.705L1275.84 255.739L1236.59 250.133L1223.51 256.362L1186.76 262.591L1168.7 261.968L1133.2 276.917H1105.79L1087.1 269.442L1052.22 280.654L1040.39 273.18L1041.64 294.98L1034.16 303.7L1026.06 312.42L1011.74 294.357L1022.33 279.408L1002.39 283.145L973.742 273.802L953.811 296.848L903.981 301.209L874.706 280.031L839.202 278.785L832.973 294.98L810.55 299.963L776.915 278.785L740.788 279.408L717.119 239.545L690.958 217.744L703.415 186.601L680.992 167.292L712.759 129.297L762.588 128.052L772.554 97.5312L834.841 103.137L869.723 77.5995L905.849 66.3879L958.793 65.1422L1019.84 93.1712L1069.04 108.743L1105.17 102.514L1133.82 106.251L1168.08 85.0739Z" stroke="white" stroke-linecap="round" stroke-linejoin="round"/>
<path opacity="0.15" d="M671.026 113.725L678.5 109.365L685.351 84.4507L668.534 73.862L699.678 61.4047L728.33 66.3876L733.936 81.9593L763.834 94.4166L759.473 104.382L720.856 106.251L708.398 118.708L684.106 139.886L671.649 121.823L671.026 113.725Z" stroke="white" stroke-linecap="round" stroke-linejoin="round"/>
<path opacity="0.15" d="M2108.62 56.4212L2119.21 60.1584L2100.52 85.6959L2129.17 100.645L2149.1 90.6788L2193.95 111.856L2160.94 140.508L2135.4 136.771L2122.32 137.394L2114.22 126.805L2115.47 108.119L2074.98 117.462L2071.87 143L2062.52 164.8L2035.12 162.931L2031.38 180.372L2057.54 189.715L2072.49 219.612L2064.39 260.098L2037.61 251.378H2018.92L2013.94 227.087L1965.98 209.646L1926.74 190.337L1900.58 171.651L1856.35 144.245L1829.57 103.136L1816.49 95.6618L1782.23 97.5304L1767.91 89.4331L1756.07 58.2898L1706.86 37.1124L1685.69 60.1584L1662.02 73.8615L1672.61 93.7932L1635.86 94.4161L1597.24 -51.3347L1671.98 -74.3807L1678.83 -71.2664L1736.14 -43.2374L1766.04 -28.2886L1807.15 7.21479L1842.65 1.60894L1896.22 -1.50539L1943.56 27.1465L1952.9 67.0099L1969.09 67.6328L1984.67 100.022L2026.4 101.268L2040.72 119.954H2053.18L2058.79 91.3017L2092.42 63.8956L2108.62 56.4212Z" stroke="white" stroke-linecap="round" stroke-linejoin="round"/>
<path opacity="0.15" d="M1679.46 1079.17L1654.54 1089.76L1648.94 1107.82V1121.52L1615.3 1138.34L1560.49 1157.03L1531.21 1185.06L1515.64 1187.55L1505.05 1185.06L1485.12 1201.87L1463.32 1209.35L1434.05 1211.22L1425.32 1213.71L1418.47 1224.3L1409.13 1227.41L1404.15 1237.38L1386.71 1236.13L1376.12 1241.74L1351.2 1239.87L1341.24 1216.2V1194.4L1335.01 1182.56L1326.91 1153.29L1315.7 1137.1L1322.55 1134.6L1318.19 1116.54L1321.93 1109.07L1319.44 1091.63L1334.39 1078.55L1329.4 1061.73L1337.5 1042.42L1352.45 1052.39L1361.79 1048.65L1401.66 1048.03L1408.51 1051.76L1442.77 1056.12L1455.85 1054.25L1465.19 1067.33L1481.38 1060.48L1503.18 1018.75L1534.33 1000.69L1633.36 985.115L1665.75 1051.14L1679.46 1079.17Z" stroke="white" stroke-linecap="round" stroke-linejoin="round"/>
<path opacity="0.15" d="M520.914 57.0449L513.439 58.9135L495.375 65.1422L494.753 73.2394L490.393 72.6166L486.656 58.2906L478.558 53.9306L471.084 43.3419L476.067 34.6217L483.541 32.1303L486.656 19.05L492.261 16.5586L497.244 22.1644L503.473 24.6559L508.456 30.8845L514.062 32.7531L520.914 40.2275L525.274 39.6046L522.782 49.5705L519.045 53.9306L520.914 57.0449Z" stroke="white" stroke-linecap="round" stroke-linejoin="round"/>
<path opacity="0.15" d="M4033.29 58.2901L4024.57 51.4385L4012.74 30.884L4028.31 30.2611L4004.02 -16.4539L3974.74 -50.0887L3992.81 -63.7918L4035.78 -56.9402L4032.05 -95.5579L4014.61 -137.913L4016.48 -152.239L4008.38 -187.742L3965.4 -175.908L3949.21 -160.959H3901.87L3864.49 -197.085L3808.44 -225.114L3746.15 -237.571L3707.53 -274.943L3679.5 -298.612L3655.83 -315.43L3607.87 -354.048L3570.5 -367.751L3516.93 -379.585L3478.31 -378.339L3446.55 -371.488L3435.96 -352.179L3459 -343.459L3474.58 -322.281L3466.48 -309.824L3467.72 -269.338L3479.56 -251.897L3452.15 -227.606L3406.06 -242.554L3371.18 -238.817L3346.89 -251.897L3325.71 -256.257L3298.3 -228.851L3261.55 -222.623L3239.13 -212.657L3196.78 -218.886H3168.12L3137.6 -238.817L3096.49 -256.88L3062.86 -262.486L3027.35 -257.503L3002.44 -250.029L2949.49 -266.223L2927.07 -294.875L2885.34 -304.841L2855.44 -309.824L2811.84 -325.396L2803.74 -285.532L2828.66 -263.109L2813.71 -235.703L2763.88 -245.669L2732.74 -246.914L2702.84 -264.978L2670.45 -265.6L2637.44 -277.435L2600.69 -259.372L2558.95 -226.36L2529.68 -219.508L2519.09 -216.394L2491.68 -240.063L2454.31 -234.457L2433.76 -251.275L2408.84 -258.749L2383.3 -281.172L2362.75 -288.024L2324.13 -278.058L2271.81 -299.858L2264.96 -279.926L2150.97 -377.094L2098.65 -406.368L2103.63 -418.826L2046.33 -382.699L2018.92 -380.831L2012.07 -401.385L1967.85 -414.466L1941.06 -405.123L1913.66 -444.363L1856.98 -452.46L1837.67 -436.889L1769.77 -422.563L1759.18 -413.22L1653.3 -400.14L1644.58 -387.059L1676.34 -360.899L1651.43 -350.933L1660.77 -340.967L1638.97 -322.281L1697.52 -295.498L1696.27 -277.435L1652.67 -279.304L1647.69 -267.469L1602.22 -287.401L1554.26 -286.778L1526.85 -270.583L1485.74 -286.155L1411 -312.938L1363.66 -311.693L1313.21 -269.961L1316.94 -241.932L1279.57 -264.355L1265.87 -221.377L1277.08 -213.903L1266.49 -184.005L1299.5 -157.845L1321.93 -159.09L1348.71 -132.93L1349.96 -112.998L1367.4 -106.147L1358.68 -83.1006L1330.02 -76.8719L1307.6 -36.3856L1344.97 1.60918L1347.47 27.7696L1392.94 74.4846L1377.36 90.6791L1373.63 100.645L1358.68 97.5307L1331.89 73.8617L1322.55 72.616L1300.13 63.273L1287.05 47.0784L1255.28 38.9812L1237.22 45.2098L1229.74 37.7354L1182.4 18.4266L1134.44 12.198L1105.79 5.34641L1103.3 10.3294L1055.96 -23.3055L1017.34 -38.2542L985.577 -61.3003L1008 -67.5289L1027.93 -99.918L1007.38 -115.49L1050.36 -131.684L1047.86 -140.404L1021.08 -134.176L1018.59 -150.993L1032.29 -162.205L1062.19 -164.696L1064.06 -177.776L1052.85 -199.577L1060.94 -219.508L1058.45 -231.343L1010.49 -243.8L992.428 -243.177L970.005 -261.24L947.582 -255.012L905.849 -268.715L905.226 -276.189L890.9 -293.007L866.608 -294.875L861.625 -306.71L867.231 -314.807L843.561 -336.607L813.041 -332.87L803.697 -334.739L797.469 -326.019L786.257 -327.264L773.8 -352.179L764.457 -364.636L769.439 -368.373L793.732 -367.128L803.697 -375.225L793.109 -385.191L771.931 -392.042V-398.894L758.851 -405.745L735.181 -430.66L739.542 -440.626L732.691 -458.689L702.792 -467.409L687.843 -463.049L682.237 -472.392L649.225 -481.735L636.145 -504.158L629.917 -522.221L614.345 -530.319L624.311 -542.153L609.361 -577.034L625.556 -598.211L619.95 -604.44L647.979 -624.994L614.345 -642.435L664.175 -688.527L685.352 -709.704L690.958 -727.767L644.865 -752.059L650.471 -775.728L619.95 -801.889L630.539 -831.786L590.052 -871.027L608.116 -897.187L562.646 -920.233L560.154 -943.902L580.087 -947.016L619.95 -960.097L642.997 -971.931L690.958 -951.999L763.834 -943.902L874.082 -905.284L899.62 -889.09L908.963 -866.044L885.917 -847.981L845.43 -838.638L719.61 -864.798L701.547 -860.438L751.999 -834.9L758.228 -818.706L770.063 -782.58L808.058 -771.991L831.727 -762.648L830.481 -780.088L809.303 -795.037L822.384 -808.74L894.637 -786.317L914.569 -795.037L887.785 -821.197L938.239 -854.832L963.776 -852.964L992.428 -841.129L999.28 -864.798L970.005 -885.353L974.987 -905.907L948.204 -927.085L1024.82 -915.873L1047.24 -897.187L1015.47 -892.827L1022.95 -873.518L1048.49 -861.684L1085.86 -869.158L1083.37 -890.958L1131.33 -907.776L1208.56 -936.428L1228.5 -935.182L1212.93 -914.627L1246.56 -910.89L1259.64 -922.725L1307.6 -923.347L1338.75 -937.673L1378.61 -917.119L1396.05 -939.542L1358.68 -958.851L1366.15 -970.062L1447.13 -960.097L1488.23 -949.508L1604.09 -910.89L1610.94 -928.33L1574.19 -946.394L1569.21 -953.245L1536.2 -956.982L1534.95 -972.554L1505.68 -998.714L1498.82 -1009.3L1525.61 -1038.58L1521.87 -1068.48L1535.57 -1074.7L1606.58 -1065.98L1624.64 -1047.92L1619.04 -1021.76L1642.08 -1011.17L1665.75 -988.126L1689.42 -942.033L1731.16 -921.479L1734.27 -898.433L1712.47 -849.849L1745.48 -844.866L1748.6 -857.324L1772.26 -866.044L1769.15 -882.861L1780.99 -899.679L1753.58 -918.987L1751.09 -941.411L1721.19 -943.902L1703.13 -962.588L1700.63 -996.223L1649.56 -1023.01L1678.83 -1044.81L1655.79 -1067.85L1667.62 -1068.48L1693.78 -1051.04L1706.86 -1019.27L1738.01 -1013.04L1709.35 -1036.71L1741.12 -1049.79L1791.57 -1051.66L1851.37 -1032.97L1808.39 -1059.76L1777.87 -1094.01L1814.62 -1100.24L1873.79 -1099L1922.38 -1103.36L1887.5 -1119.55L1895.59 -1140.11L1921.75 -1141.35L1952.28 -1156.3L2010.2 -1160.66L2008.96 -1169.38L2066.88 -1171.87L2093.67 -1165.02L2127.3 -1181.21L2170.9 -1180.59L2161.56 -1194.29L2167.17 -1206.75L2205.78 -1219.21L2257.48 -1209.24L2235.68 -1201.77L2294.23 -1197.41L2319.77 -1182.46L2331.6 -1189.93L2399.5 -1189.31L2471.75 -1174.36L2506.01 -1163.15L2521.58 -1146.96L2506.63 -1137.61L2465.52 -1120.17L2458.67 -1110.83L2493.55 -1106.47L2538.4 -1098.37L2553.35 -1104.6L2589.47 -1084.05L2590.72 -1092.14L2623.11 -1097.13L2707.82 -1092.14L2731.49 -1077.2L2839.87 -1072.21L2809.97 -1096.5L2869.14 -1090.9L2907.14 -1091.52L2968.8 -1074.7L3006.18 -1054.15L3008.67 -1040.45L3071.58 -1014.29L3127.64 -1001.21L3108.95 -1035.46L3167.5 -1021.14L3198.64 -1029.86L3259.69 -1019.89L3265.91 -1028.61L3313.25 -1024.25L3254.7 -1054.77L3267.78 -1068.48L3519.42 -1047.3L3568.63 -1027.99L3670.16 -1003.07L3762.34 -1009.3L3820.27 -1003.7L3861.38 -989.994L3893.15 -965.702L3938.62 -956.359L3962.91 -963.211L4006.51 -963.834L4064.44 -957.605L4107.42 -961.342L4196.49 -931.445L4212.06 -942.033L4159.11 -963.211L4147.9 -978.16L4243.2 -968.817L4293.03 -970.685L4391.44 -955.114L4450.62 -940.165L4657.41 -802.511L4644.95 -786.94L4606.34 -789.431L4657.41 -770.745L4714.09 -741.471L4740.25 -732.128L4763.92 -717.179L4770.15 -707.836L4707.86 -715.31L4666.76 -688.527L4648.07 -684.167L4638.1 -658.629L4625.65 -636.206L4636.23 -619.389L4564.6 -644.926L4526.61 -616.274L4497.33 -629.977L4488.61 -613.783L4445.01 -619.389L4464.32 -595.097L4471.17 -558.971L4489.24 -544.022L4531.59 -535.925L4588.27 -481.735L4562.73 -479.867L4583.91 -448.723L4613.19 -432.529L4582.04 -413.22L4615.68 -369.619L4580.18 -360.276L4608.2 -321.658L4597.62 -285.532L4562.11 -312.315L4496.71 -367.751L4395.81 -452.46L4355.32 -504.158L4355.94 -526.582L4338.5 -544.022L4374 -552.119L4372.76 -598.834L4377.12 -636.206L4392.69 -665.481L4351.58 -716.556L4322.31 -713.442L4342.24 -683.544L4319.81 -643.68L4243.2 -688.527L4186.52 -676.07V-615.029L4234.48 -592.605L4181.54 -582.64L4141.67 -578.902L4114.89 -605.686L4065.06 -611.291L4049.49 -593.228L3955.43 -599.457L3873.22 -588.868L3851.41 -515.993L3820.27 -427.546L3871.35 -422.563L3906.85 -398.894L3942.98 -390.797L3945.47 -409.483L3980.35 -406.991L4060.08 -365.259L4089.35 -332.87L4098.07 -294.252L4132.33 -248.16L4165.34 -186.496L4159.11 -129.816L4167.21 -103.032L4154.75 -56.9402L4141.67 -11.471L4136.07 11.5751L4107.42 34.6211L4088.11 35.244L4055.72 15.9351L4030.18 45.2098L4033.29 58.2901Z" stroke="white" stroke-linecap="round" stroke-linejoin="round"/>
<path opacity="0.15" d="M134.11 60.7812L124.767 91.3017L109.818 83.2045L101.721 57.0441L107.327 42.0952L127.258 27.1465L134.11 60.7812Z" stroke="white" stroke-linecap="round" stroke-linejoin="round"/>
<path opacity="0.15" d="M1.43795 -228.229L8.2894 -225.115L17.0098 -225.737L31.9585 -215.772L76.8054 -208.297L61.8563 -182.137L59.3651 -154.108L51.2678 -147.256L36.9414 -150.993L38.1872 -141.028L15.764 -119.227V-101.164L30.7127 -107.393L41.9247 -90.5754L41.3016 -79.3639L50.6447 -64.415L40.0558 -52.5806L49.3989 -22.0601L66.8396 -17.0772L63.7252 -0.259747L35.696 22.1634L-27.8371 11.5747L-73.9299 24.6549L-77.667 48.3238L-114.417 53.3067L-150.543 35.2436L-162.378 43.9637L-221.551 25.9006L-234.008 10.9518L-217.191 -12.7171L-210.962 -91.1983L-242.728 -132.307L-265.775 -152.239L-313.113 -167.188L-315.604 -195.84L-275.118 -203.937L-223.419 -193.971L-232.762 -238.195L-203.487 -221.377L-132.48 -251.275L-123.137 -283.041L-96.9763 -291.138L-91.993 -277.435L-78.2901 -276.812L-63.341 -261.241L-41.5404 -243.178L-25.9686 -246.292L1.43795 -228.229Z" stroke="white" stroke-linecap="round" stroke-linejoin="round"/>
<path opacity="0.15" d="M1556.75 695.483L1558.62 696.106L1559.87 695.483L1562.36 699.843L1561.73 701.089L1562.36 706.694V711.054L1561.11 713.546L1560.49 711.054L1556.75 706.072L1557.37 703.58L1556.13 699.22V696.729L1556.75 695.483Z" stroke="white" stroke-linecap="round" stroke-linejoin="round"/>
<path opacity="0.15" d="M959.416 342.94L960.04 344.185L961.908 346.677L959.416 346.054H957.548L955.056 347.3L953.188 345.431V343.562L955.056 342.94L956.302 343.562L959.416 342.94Z" stroke="white" stroke-linecap="round" stroke-linejoin="round"/>
<path opacity="0.15" d="M948.827 346.054V346.676L947.582 347.922L946.958 351.659L946.335 352.905H944.467L943.221 354.151L940.107 355.397L938.861 356.019L935.124 357.888L932.633 357.265L929.518 357.888L927.649 360.379L926.404 358.511L924.535 359.134H923.289L921.421 357.265L918.929 359.134H915.815L912.7 357.888L909.586 357.265L907.095 355.397L905.226 351.659L903.357 349.791L902.112 345.431L900.866 343.562L901.489 341.693L904.603 343.562L907.095 342.939L908.34 341.071L908.963 339.202L910.832 338.579L912.077 339.202L913.324 337.956H914.569L915.192 340.448L918.306 341.693L918.929 342.939H922.667L926.404 339.825L928.895 340.448L930.764 339.202L932.633 339.825L935.124 341.071L936.37 339.202H938.239L940.107 341.693V345.431L941.976 344.185L943.844 345.431L944.467 344.808L948.827 346.054Z" stroke="white" stroke-linecap="round" stroke-linejoin="round"/>
<path opacity="0.15" d="M309.76 311.797L308.514 313.665L305.399 312.419L302.285 310.551V307.436L301.662 306.813H305.399L307.891 308.682L309.137 309.928L309.76 311.797Z" stroke="white" stroke-linecap="round" stroke-linejoin="round"/>
<path opacity="0.15" d="M299.794 304.946L296.68 304.323V303.078L299.171 302.455L301.662 304.323L299.794 304.946Z" stroke="white" stroke-linecap="round" stroke-linejoin="round"/>
</svg>
