<svg width="284" height="92" viewBox="0 0 284 92" fill="none" xmlns="http://www.w3.org/2000/svg">
<path d="M55.046 10.5188L55.025 0.0256996H54.5285L54.5511 10.3042C54.5527 11.162 54.2506 11.9816 53.723 12.5561L47.1943 19.1924L47.1873 15.6128V15.5917C47.2123 15.0367 47.4215 14.5153 47.7704 14.1523L52.766 9.12863C53.1992 8.67668 53.4482 8.01242 53.4412 7.3146L53.4053 3.48203L53.3975 -6.10352e-05L52.9112 0.00150299L52.919 3.31265C52.9206 3.98315 52.6848 4.62165 52.2735 5.07048L47.0882 10.3635C47.007 10.4517 46.9352 10.5493 46.8704 10.6546C46.8048 10.5493 46.7322 10.4517 46.6503 10.365L41.401 5.09155C40.9889 4.64585 40.75 4.00735 40.75 3.33607L40.743 0.0256996L40.2567 0.0272636L40.2645 3.50935L40.2434 7.34192C40.2387 8.03896 40.4893 8.70088 40.9256 9.15048L45.9408 14.1547C46.2912 14.5184 46.5012 15.0367 46.5301 15.5932V15.6143L46.5379 19.194L39.9804 12.5803C39.4512 12.0097 39.1483 11.1924 39.1467 10.3362L39.1257 0.0577011H38.6308L38.6519 10.5516L38.6245 15.3684C38.6199 16.231 38.9274 17.0459 39.466 17.6024L45.7651 23.8891C46.2124 24.348 46.4879 25.0185 46.5223 25.7343L46.5449 42.511L46.8688 42.8755L47.2341 42.511L47.2029 25.7609V25.7296C47.2373 25.0185 47.5105 24.3434 47.9546 23.8828L54.2584 17.572C54.7955 17.0139 55.0999 16.1966 55.0913 15.3357L55.046 10.5188ZM44.8847 27.2088L38.3201 20.5857C37.7909 20.0128 37.4865 19.1955 37.4849 18.3369L37.4467 0.0600471H36.9502V23.3716C36.9463 24.2341 37.264 25.0482 37.8042 25.6047L44.1018 31.8906C44.5873 32.3902 44.8667 33.1192 44.8683 33.8896L44.8815 40.8609L45.5778 41.5509L45.5833 29.1064C45.5848 28.3804 45.3311 27.6889 44.8847 27.2088ZM56.7875 0.0210152L56.2083 0.0225792L56.245 18.2995C56.2458 19.1581 55.946 19.9769 55.4184 20.5514L48.8788 27.201C48.4339 27.6826 48.1833 28.3757 48.188 29.1017V41.5571L48.9358 40.8546V40.8398L48.9225 33.8811C48.9209 33.1114 49.1973 32.3808 49.6804 31.8797L55.9538 25.5688C56.4908 25.0092 56.7937 24.1951 56.7875 23.3325V0.0210152Z" fill="#3D82D4"/>
<path d="M24.3737 17.41L16.1598 10.8798L15.8499 11.2677L23.8975 17.6629C24.5688 18.1976 25.0208 18.9438 25.1402 19.715L26.2541 28.9568L23.4518 26.7299L23.4355 26.7166C23.0179 26.3505 22.74 25.8619 22.6744 25.3624L21.8642 18.3248C21.7822 17.7042 21.4177 17.0946 20.8682 16.6653L17.8505 14.3026L15.1248 12.1357L14.8227 12.5166L17.415 14.5765C17.9395 14.9934 18.2923 15.5764 18.386 16.1775L19.2875 23.5319C19.3063 23.6506 19.3375 23.7677 19.3797 23.884C19.2563 23.8699 19.1346 23.8652 19.0151 23.8754L11.6193 24.6879C11.0144 24.7324 10.3657 24.5201 9.84195 24.1017L7.2497 22.0418L6.94762 22.4228L9.67335 24.5888L12.6559 26.9961C13.1976 27.4355 13.8712 27.6517 14.4949 27.5916L21.5348 26.7947C22.0375 26.7471 22.5737 26.9063 23.0272 27.2318L23.0436 27.2443L25.8451 29.4712L16.5852 30.4696C15.8094 30.5281 14.982 30.2549 14.3115 29.721L6.26541 23.3251L5.95631 23.7122L14.1717 30.2432L17.9192 33.2695C18.5905 33.8112 19.4187 34.0789 20.1899 34.0047L29.0329 33.0048C29.6706 32.9416 30.3661 33.1446 30.9476 33.5637L44.0728 44.0131L44.5598 43.9874L44.5029 43.4745L31.3925 33.0493L31.3683 33.029C30.8336 32.5584 30.4769 31.9245 30.3942 31.2899L29.3951 22.4259C29.2936 21.6578 28.8448 20.91 28.1664 20.38L24.3737 17.41ZM31.0779 35.7641L21.8064 36.7625C21.0282 36.8187 20.1992 36.5463 19.528 36.0124L5.22024 24.6388L4.91113 25.0267L23.1287 39.5702C23.8 40.1119 24.6352 40.3718 25.4072 40.2969L34.2478 39.297C34.9417 39.2283 35.6856 39.4656 36.289 39.9448L41.7451 44.2832L42.7185 44.17L32.9966 36.4011C32.4299 35.9476 31.7321 35.7142 31.0779 35.7641ZM17.2565 9.49975L16.8959 9.95325L31.2021 21.3276C31.8741 21.8615 32.3269 22.607 32.4463 23.3782L33.564 32.6372C33.6624 33.2858 34.048 33.9142 34.6178 34.3638L44.3514 42.1335L44.2702 41.111L44.2585 41.1016L38.8118 36.7711C38.2092 36.2918 37.8103 35.6205 37.7205 34.9305L36.7019 26.0906C36.5997 25.3218 36.1524 24.5763 35.4741 24.0432L17.2565 9.49975Z" fill="#2663BF"/>
<path d="M10.6227 45.6804L0.394965 48.0252L0.505025 48.5099L10.5228 46.2104C11.3595 46.0192 12.2252 46.1316 12.9019 46.5195L20.82 51.4152L17.3316 52.2153L17.3105 52.22C16.7642 52.3183 16.2084 52.2301 15.7775 51.9702L9.77187 48.2118C9.23562 47.8894 8.53234 47.7934 7.85403 47.9557L4.1245 48.8393L0.730607 49.6183L0.839886 50.0921L4.06673 49.3514C4.72006 49.2007 5.39525 49.2889 5.92369 49.591L12.2338 53.4751C12.3384 53.5344 12.4492 53.5828 12.5663 53.6226C12.4781 53.7101 12.3992 53.8022 12.3329 53.9021L8.35359 60.1887C8.01014 60.6891 7.43955 61.0637 6.78622 61.2121L3.55937 61.9528L3.66865 62.4266L7.06175 61.6476L10.8038 60.8194C11.4852 60.6688 12.0745 60.2785 12.4172 59.7532L16.1858 53.7538C16.4621 53.3315 16.9218 53.0115 17.4581 52.86L17.4784 52.8561L20.9667 52.0553L15.9703 59.9148C15.5316 60.5572 14.8018 61.0341 13.9666 61.2253L3.94809 63.5225L4.05815 64.0057L14.2866 61.6601L18.9903 60.6188C19.8318 60.4323 20.5585 59.9522 20.9815 59.3036L25.7164 51.7688C26.0653 51.231 26.6578 50.8134 27.3478 50.6214L43.7029 46.8825L43.9871 46.4852L43.5507 46.2104L27.2237 49.9516L27.1933 49.9587C26.4923 50.0828 25.7734 49.9657 25.2255 49.6347L17.6751 44.8858C17.0124 44.4854 16.1475 44.3698 15.31 44.5697L10.6227 45.6804ZM29.1486 51.8921L24.1452 59.7602C23.7034 60.4034 22.9735 60.8819 22.1375 61.0731L4.32276 65.1594L4.43282 65.6433L27.1652 60.4783C28.0066 60.2918 28.731 59.8016 29.154 59.1514L33.8881 51.6182C34.2675 51.0335 34.9161 50.6003 35.6678 50.4278L42.4626 48.8698L42.9809 48.0385L30.8447 50.79C30.136 50.9492 29.5178 51.3496 29.1486 51.8921ZM0 46.308L0.129574 46.8723L17.9444 42.7876C18.7811 42.5964 19.646 42.7072 20.3235 43.0952L28.2564 47.9979C28.8246 48.3257 29.556 48.4163 30.2632 48.2516L42.4088 45.4915L41.5587 44.9178L41.5439 44.9209L34.7608 46.4758C34.0107 46.6475 33.2372 46.5406 32.6416 46.18L25.0974 41.4615C24.4332 41.061 23.5714 40.9463 22.7323 41.143L0 46.308Z" fill="#0A45AB"/>
<path d="M24.1387 74.0641L19.5904 83.5207L20.0377 83.7361L24.4908 74.4724C24.8631 73.6996 25.4915 73.0931 26.2166 72.8059L34.9823 69.6727L33.4313 72.898L33.422 72.9167C33.1581 73.4053 32.7429 73.7847 32.2699 73.9595L25.5867 76.3083C24.9997 76.526 24.4861 77.0162 24.1895 77.6477L22.5534 81.1134L21.0446 84.2521L21.4833 84.462L22.9172 81.4779C23.2075 80.8738 23.6977 80.4008 24.2636 80.176L31.2356 77.6672C31.3472 77.6235 31.4542 77.5665 31.558 77.5002C31.572 77.6235 31.5947 77.7429 31.6306 77.8569L34.0613 84.889C34.2384 85.4697 34.1752 86.1488 33.8833 86.7522L32.4494 89.7363L32.8873 89.9463L34.3961 86.8084L36.0829 83.3669C36.3905 82.7409 36.4529 82.0368 36.2562 81.4412L33.9192 74.7534C33.7615 74.2741 33.7982 73.7152 34.0144 73.2016L34.0238 73.1829L35.5748 69.9568L38.5995 78.7655C38.8282 79.5093 38.7446 80.3773 38.3739 81.1485L33.9192 90.4115L34.3649 90.6269L38.9132 81.1696L41.034 76.8445C41.4134 76.0702 41.4914 75.203 41.2487 74.4677L38.3138 66.0657C38.1108 65.4584 38.1545 64.7341 38.4348 64.0753L45.7166 48.9612L45.5832 48.4913L45.0961 48.6607L37.8337 63.7545L37.8204 63.7833C37.4801 64.4086 36.94 64.8972 36.3397 65.1189L27.9174 68.0569C27.1915 68.3254 26.5616 68.9288 26.1947 69.7078L24.1387 74.0641ZM40.5509 63.4602L43.5787 72.2806C43.8058 73.0268 43.7246 73.8955 43.3523 74.6683L35.4311 91.1397L35.8784 91.356L46.0242 70.3682C46.4035 69.5939 46.4722 68.722 46.2279 67.9859L43.2938 59.5863C43.0736 58.9251 43.14 58.1469 43.4741 57.4522L46.4956 51.1702L46.1694 50.246L40.7476 61.4479C40.4307 62.1005 40.3581 62.8334 40.5509 63.4602ZM18.002 82.7573L18.5241 83.0078L26.4461 66.5372C26.8184 65.7644 27.4452 65.1571 28.1703 64.8699L36.9517 61.7289C37.5621 61.4893 38.0897 60.9741 38.4012 60.3184L43.8222 49.1049L42.8426 49.4108L42.8363 49.4249L39.8195 55.6959C39.4862 56.3891 38.9195 56.9269 38.2669 57.1673L29.872 60.1194C29.1453 60.3895 28.5177 60.9905 28.1477 61.7695L18.002 82.7573Z" fill="#002B87"/>
<path d="M54.7523 81.2093L59.3053 90.6635L59.7526 90.4488L55.2917 81.189C54.9193 80.4155 54.8374 79.5467 55.0653 78.8005L58.0853 69.9949L59.6386 73.2194L59.6472 73.2382C59.8642 73.7502 59.9017 74.3107 59.7432 74.7892L57.4093 81.4778C57.2134 82.0726 57.2759 82.7798 57.5842 83.405L59.2725 86.8465L60.7837 89.9828L61.2216 89.7713L59.7846 86.7888C59.4934 86.1854 59.4294 85.5071 59.6066 84.9248L61.9959 77.9106C62.031 77.7959 62.0537 77.6772 62.0662 77.5547C62.1716 77.621 62.2785 77.6772 62.3901 77.7202L69.4027 80.2078C69.967 80.4318 70.458 80.9049 70.7484 81.5098L72.1854 84.4923L72.6233 84.2808L71.1113 81.1437L69.4745 77.6788C69.1771 77.0473 68.6658 76.5595 68.0773 76.3417L61.3925 73.9953C60.9195 73.8197 60.5058 73.4427 60.2397 72.9533L60.2303 72.9338L58.677 69.7092L67.4482 72.8409C68.1717 73.1266 68.7985 73.7323 69.1701 74.5042L73.6302 83.7648L74.0767 83.551L69.5229 74.096L67.4661 69.7405C67.0977 68.9607 66.4685 68.3589 65.7418 68.0896L57.3453 65.1414C56.7435 64.9205 56.2049 64.435 55.8646 63.8051L48.5952 48.6848L48.1456 48.4959L47.9739 48.9822L55.2394 64.0744L55.2534 64.1025C55.529 64.7589 55.575 65.4856 55.3736 66.0929L52.4145 74.5082C52.1718 75.2434 52.2506 76.1122 52.6307 76.885L54.7523 81.2093ZM56.7045 61.767L65.4866 64.9033C66.2117 65.1913 66.8393 65.7971 67.2116 66.5706L75.1422 83.0366L75.5902 82.8227L65.5178 61.7998C65.1494 61.02 64.5101 60.4229 63.7826 60.1544L55.3877 57.207C54.7336 56.9666 54.1669 56.4295 53.8328 55.7348L50.8089 49.4536L49.8824 49.132L55.2542 60.3581C55.5664 61.013 56.0941 61.5274 56.7045 61.767ZM57.7177 91.4292L58.2391 91.1771L50.3093 74.7103C49.937 73.9368 49.8535 73.0688 50.0822 72.3226L53.1053 63.4999C53.2989 62.8731 53.2255 62.1401 52.9078 61.4868L47.5258 50.2545L47.1543 51.2115L47.1613 51.2247L50.1798 57.495C50.5138 58.1881 50.581 58.9664 50.3616 59.6267L47.4306 68.0287C47.1879 68.7655 47.2667 69.6304 47.6453 70.4063L57.7177 91.4292Z" fill="#94D4FF"/>
<path d="M79.436 61.7417L89.6645 64.0818L89.7769 63.5978L79.756 61.3077C78.92 61.1156 78.1894 60.6379 77.7492 59.994L72.7512 52.1407L76.2404 52.9385L76.2607 52.9431C76.7953 53.093 77.2574 53.413 77.5322 53.8353L81.3039 59.8324C81.6465 60.3569 82.2374 60.7488 82.9189 60.8986L86.6617 61.7253L90.0555 62.5011L90.164 62.0273L86.9364 61.2905C86.2823 61.1406 85.7125 60.7675 85.3683 60.2664L81.3772 54.0227C81.3093 53.9235 81.2305 53.8314 81.1431 53.7456C81.2602 53.7042 81.371 53.6566 81.4748 53.5957L87.7935 49.6679C88.3204 49.3658 88.9971 49.2768 89.6504 49.4283L92.8773 50.1651L92.9858 49.6913L89.5911 48.9154L85.8616 48.0334C85.1833 47.8718 84.4823 47.9671 83.9453 48.291L77.9412 52.0517C77.5088 52.3117 76.9554 52.3999 76.4074 52.3023L76.3863 52.2976L72.8972 51.4999L80.8168 46.5987C81.4912 46.2108 82.3561 46.1 83.1913 46.2912L93.2106 48.5829L93.3222 48.1005L83.0921 45.7604L78.4049 44.6504C77.565 44.4522 76.7025 44.5685 76.039 44.9681L68.4964 49.6905C67.9484 50.0231 67.2327 50.1417 66.5278 50.0137L50.1758 46.2615L49.748 46.4957L50.0212 46.9336L66.3491 50.6709L66.3795 50.678C67.0648 50.8715 67.6604 51.2891 68.0093 51.8254L72.7403 59.3875C73.1634 60.0361 73.8916 60.517 74.7323 60.7019L79.436 61.7417ZM65.46 48.0865L73.3897 43.1799C74.0673 42.7927 74.9321 42.6803 75.7681 42.8715L93.5853 46.9469L93.6969 46.4629L70.9833 41.2191C70.1442 41.02 69.2785 41.1473 68.615 41.5477L61.074 46.2701C60.4784 46.6315 59.7049 46.7392 58.9532 46.5667L52.1584 45.0118L51.3295 45.5348L63.4532 48.3402C64.1604 48.5049 64.8918 48.4135 65.46 48.0865ZM89.2726 65.7998L89.4014 65.2355L71.5851 61.1594C70.7483 60.9673 70.0177 60.4912 69.5767 59.8472L64.5686 51.9799C64.1994 51.4374 63.5804 51.0378 62.8724 50.8786L50.7362 48.0771L51.2522 48.9646L51.2662 48.9677L58.0501 50.5203C58.8002 50.6912 59.4497 51.1252 59.829 51.7083L64.567 59.24C64.9917 59.8894 65.7176 60.3679 66.559 60.556L89.2726 65.7998Z" fill="#66B5F5"/>
<path d="M79.6211 30.305L87.8318 23.7709L87.5227 23.3814L79.4821 29.7836C78.8101 30.3183 77.9811 30.5907 77.2029 30.5337L67.947 29.5393L70.7468 27.31L70.764 27.2975C71.2144 26.9728 71.753 26.812 72.2549 26.8604L79.2948 27.6543C79.9177 27.7136 80.5929 27.4958 81.1354 27.0571L84.1163 24.6483L86.8405 22.4799L86.5376 22.0998L83.9477 24.162C83.4232 24.5796 82.7761 24.7919 82.1688 24.7482L74.7995 23.9723C74.6801 23.9637 74.5591 23.9677 74.4366 23.9825C74.4779 23.8654 74.5099 23.7483 74.5263 23.6297L75.399 16.2409C75.4919 15.6406 75.8447 15.0567 76.37 14.6399L78.9599 12.5777L78.6571 12.1983L75.9329 14.3667L72.916 16.7311C72.3673 17.1604 72.0043 17.7676 71.9224 18.389L71.1153 25.4281C71.0489 25.9284 70.7726 26.4155 70.3542 26.7831L70.3378 26.7964L67.538 29.0257L68.6479 19.7784C68.7658 19.0095 69.2185 18.2641 69.889 17.731L77.9312 11.3303L77.6236 10.9424L69.4121 17.4773L65.6201 20.4481C64.9418 20.9804 64.4945 21.7274 64.3923 22.4947L63.3783 31.3362C63.2964 31.9723 62.942 32.6046 62.4026 33.076L49.2689 43.5145L49.1846 43.9953L49.6966 44.0547L62.8038 33.6263L62.8288 33.6068C63.4072 33.1916 64.1058 32.9863 64.7428 33.0487L73.6045 34.0689C74.3749 34.1431 75.2054 33.8738 75.8744 33.3321L79.6211 30.305ZM60.2295 32.7084L61.3426 23.4501C61.4628 22.6789 61.914 21.9327 62.5861 21.3988L76.886 10.0166L76.5777 9.62714L58.3086 24.1074C57.6295 24.6397 57.1892 25.3945 57.0886 26.1634L56.0738 35.0025C55.9848 35.6941 55.5868 36.3653 54.9834 36.8454L49.5288 41.1861L49.4203 42.1602L59.1766 34.435C59.7464 33.9854 60.1312 33.357 60.2295 32.7084ZM88.9301 25.1494L88.5687 24.6967L74.268 36.0773C73.5959 36.6112 72.7677 36.8852 71.9895 36.8282L62.7172 35.8346C62.0623 35.7846 61.3637 36.0188 60.7978 36.4731L51.0368 44.2092L52.0516 44.3599L52.0633 44.3505L57.5093 40.0176C58.1111 39.5383 58.855 39.301 59.5473 39.3682L68.3903 40.3649C69.1623 40.4383 69.9889 40.1698 70.661 39.6289L88.9301 25.1494Z" fill="#61A1E3"/>
<path d="M118.063 27.4075C118.721 27.4075 119.159 26.8954 119.159 26.2866C119.159 25.652 118.696 25.1649 118.063 25.1649C117.453 25.1649 116.989 25.677 116.989 26.2866C116.989 26.8954 117.429 27.4075 118.063 27.4075Z" fill="#0F0D0F"/>
<path d="M121.085 27.4075C121.767 27.4075 122.182 26.8954 122.182 26.2866C122.182 25.652 121.743 25.1649 121.109 25.1649C120.475 25.1649 119.988 25.677 119.988 26.2866C119.988 26.8954 120.451 27.4075 121.085 27.4075Z" fill="#0F0D0F"/>
<path d="M155.994 42.7413C155.336 42.7413 154.872 43.2533 154.872 43.8629C154.872 44.4967 155.336 45.0088 155.945 45.0088H155.97C156.652 45.0088 157.067 44.4967 157.067 43.8629C157.067 43.2291 156.628 42.7413 155.994 42.7413Z" fill="#0F0D0F"/>
<path d="M152.946 42.7413C152.337 42.7413 151.85 43.2533 151.85 43.8629C151.85 44.4967 152.312 45.0088 152.922 45.0088H152.946C153.604 45.0088 154.019 44.4967 154.019 43.8629C154.019 43.2291 153.58 42.7413 152.946 42.7413Z" fill="#0F0D0F"/>
<path d="M159.601 26.7251H159.625C160.284 26.7251 160.698 26.213 160.698 25.5792C160.698 24.9454 160.259 24.4576 159.625 24.4576C159.015 24.4576 158.528 24.9696 158.528 25.5792C158.528 26.213 158.991 26.7251 159.601 26.7251Z" fill="#0F0D0F"/>
<path d="M162.624 26.7251H162.648C163.331 26.7251 163.746 26.213 163.746 25.5792C163.746 24.9454 163.306 24.4576 162.673 24.4576C162.039 24.4576 161.552 24.9696 161.552 25.5792C161.552 26.213 162.015 26.7251 162.624 26.7251Z" fill="#0F0D0F"/>
<path d="M191.974 42.7899C191.365 42.7899 190.877 43.3019 190.877 43.9108C190.877 44.5454 191.341 45.0566 191.95 45.0566H191.974C192.632 45.0566 193.047 44.5454 193.047 43.9108C193.047 43.2777 192.608 42.7899 191.974 42.7899Z" fill="#0F0D0F"/>
<path d="M198.654 37.183C198.654 32.4535 195.437 29.2844 190.78 29.2844C188.903 29.2844 187.709 29.6747 187.197 29.9183L187.684 31.5278C188.391 31.1859 189.44 30.9182 190.707 30.9182C194.242 30.9182 196.582 33.1607 196.582 37.1104C196.582 37.695 196.533 38.2555 196.436 38.7433H186.441C184.929 38.7191 183.905 37.4023 183.93 36.0129V29.2844L181.955 29.9674V35.4033C181.955 37.4999 181.175 38.7433 179.615 38.7433C178.128 38.7433 177.177 37.3289 177.177 35.9887V30.3819L175.203 31.0883V35.7936C175.203 37.4999 174.496 38.7433 173.009 38.7433C171.473 38.7433 170.498 37.3539 170.498 35.9887V31.2835L168.523 31.9907V35.7936C168.523 37.4999 167.767 38.7433 166.28 38.7433C164.793 38.7191 163.746 37.3781 163.77 35.9887V29.2844L161.795 29.9674V35.7936C161.795 37.4889 161.048 38.7254 159.581 38.7417C158.08 38.7051 157.066 37.3719 157.091 35.9887V29.2844L155.116 29.9674V35.7936C155.116 37.4999 154.36 38.7433 152.873 38.7433H125.205C123.646 38.7433 123.012 37.4999 123.012 35.4033V29.4796C122.378 29.382 121.354 29.3094 120.013 29.3094C116.722 29.3094 113.602 30.6013 113.602 34.2582C113.602 37.549 116.356 38.9868 119.258 38.9868C119.842 38.9868 120.623 38.9385 121.793 38.7433C122.524 39.9618 123.743 40.3521 124.645 40.3521H153.605C155.067 40.3521 156.164 39.4505 156.651 38.1829C157.432 39.4989 158.553 40.3521 160.284 40.3521C161.747 40.3521 162.868 39.4505 163.33 38.1829C164.111 39.4989 165.233 40.3521 166.963 40.3521C166.98 40.3521 166.994 40.3505 167.01 40.3497L167.012 40.3521C168.474 40.3521 169.571 39.4505 170.059 38.1829C170.79 39.4989 171.985 40.3521 173.667 40.3521C175.129 40.3521 176.251 39.4505 176.714 38.1829C177.47 39.5965 178.64 40.3521 180.346 40.3521C181.394 40.3521 182.809 39.8642 183.491 38.1337C184.198 39.4989 185.392 40.3279 187.124 40.3521H198.995L199.678 38.7433H198.532C198.606 38.2555 198.654 37.7434 198.654 37.183ZM121.061 37.3289C120.574 37.3781 120.013 37.4265 119.501 37.4265C117.527 37.4265 115.626 36.525 115.626 34.209C115.626 31.9173 117.332 30.8206 119.526 30.8206C120.159 30.8206 120.623 30.8448 121.061 30.9424V37.3289Z" fill="#0F0D0F"/>
<path d="M223.056 35.4034C223.056 37.4868 222.285 38.7263 220.745 38.7419C219.245 38.7052 218.23 37.3712 218.254 35.9889V24.4576L216.279 25.1648V35.7929C216.279 37.5 215.524 38.7427 214.037 38.7427H214.012H212.355V34.3793C212.355 31.5272 211.453 29.2846 207.918 29.2846C204.749 29.2846 202.822 31.8441 202.822 35.1107C202.822 38.3532 204.993 40.3522 208.064 40.3522H210.307C210.185 42.6681 209.405 43.1794 207.455 43.5213L207.698 45.0816C210.282 45.13 212.355 43.1794 212.33 40.3522H214.72C214.736 40.3522 214.751 40.3506 214.766 40.3499L214.768 40.3522C216.231 40.3522 217.327 39.4499 217.815 38.1822C218.595 39.4991 219.716 40.3522 221.447 40.3522H221.448C222.911 40.3514 225.031 39.4007 225.031 35.647V24.4576L223.056 25.1648V35.4034ZM210.38 38.7427H208.552C206.601 38.7427 204.724 37.9629 204.7 34.9398C204.627 32.0392 206.09 30.674 207.747 30.674C209.795 30.674 210.38 32.3803 210.38 33.648V38.7427Z" fill="#0F0D0F"/>
<path d="M226.981 40.3523H228.956V24.4577L226.981 25.1649V40.3523Z" fill="#0F0D0F"/>
<path d="M243.753 42.7413C243.095 42.7413 242.631 43.2533 242.631 43.8629C242.631 44.4967 243.07 45.0088 243.703 45.0088H243.728C244.386 45.0088 244.825 44.4967 244.825 43.8629C244.825 43.2291 244.361 42.7413 243.753 42.7413Z" fill="#0F0D0F"/>
<path d="M249.554 35.4035C249.554 37.5001 248.774 38.7428 247.214 38.7428H240.412C238.195 38.7428 236.756 36.7687 236.756 34.5988C236.756 32.2586 238.291 30.7959 239.413 30.0645L238.682 28.9678C237.195 29.5774 234.952 31.4789 234.952 34.623C234.952 38.4992 237.878 40.3523 240.412 40.3523H247.945C249.408 40.3523 251.529 39.4016 251.529 35.6471V29.2847L249.554 29.9677V35.4035Z" fill="#0F0D0F"/>
<path d="M259.769 29.2847C256.599 29.2847 254.674 31.8442 254.674 35.1109C254.674 38.3533 256.673 40.5717 259.988 40.5717C260.841 40.5717 261.548 40.4983 262.157 40.3524C262.036 42.6683 261.207 43.2529 259.305 43.5214L259.549 45.0818C262.889 45.0084 264.205 42.9118 264.205 39.4016V34.3795C264.205 31.5273 263.303 29.2847 259.769 29.2847ZM262.23 38.8412C261.694 38.963 261.06 39.0355 260.256 39.0355C258.282 39.0355 256.574 37.9631 256.55 34.9407C256.478 32.6248 257.526 30.6742 259.598 30.6742C261.646 30.6742 262.23 32.3805 262.23 33.6481V38.8412Z" fill="#0F0D0F"/>
<path d="M267.57 38.8409C267.692 42.8874 266.498 43.351 264.645 43.5212L264.889 45.0815C268.156 44.984 269.521 43.0825 269.521 39.5723V31.5029L267.57 32.2101V38.8409Z" fill="#0F0D0F"/>
<path d="M282.538 33.8434C281.928 31.2106 280.368 29.2849 277.565 29.2849C276.297 29.2849 275.079 29.8212 274.322 30.3332L274.663 31.8444C275.322 31.3815 276.345 30.8937 277.296 30.8937C279.223 30.8937 280.27 32.2105 280.636 34.087L281.66 38.743H272.446L271.763 40.3525H284L282.538 33.8434Z" fill="#0F0D0F"/>
<path d="M124.163 59.9871C124.163 63.8844 121.674 66.7397 117.487 66.7397H113.609V53.2344H117.487C121.674 53.2344 124.163 56.0897 124.163 59.9871ZM122.426 59.9871C122.426 57.1123 120.69 54.7776 117.39 54.7776H115.23V65.1966H117.39C120.69 65.1966 122.426 62.8619 122.426 59.9871Z" fill="#0F0D0F"/>
<path d="M134.697 53.2345H136.318V61.7622C136.318 64.8298 134.485 66.9717 131.398 66.9717C128.311 66.9717 126.479 64.8298 126.479 61.7622V53.2345H128.099V61.5889C128.099 63.7682 129.064 65.4277 131.398 65.4277C133.732 65.4277 134.697 63.7682 134.697 61.5889V53.2345Z" fill="#0F0D0F"/>
<path d="M139.482 53.2347H142.993C145.675 53.2347 147.508 54.8169 147.508 57.228C147.508 60.4307 144.595 61.0294 144.21 61.0872L147.952 66.74H146.003L142.357 61.2222H141.103V66.74H139.482V53.2347ZM145.888 57.228C145.888 55.7426 144.903 54.7779 143.09 54.7779H141.103V59.6782H143.09C144.903 59.6782 145.888 58.7142 145.888 57.228Z" fill="#0F0D0F"/>
<path d="M162.654 59.9872C162.654 63.8846 159.876 66.9717 155.979 66.9717C152.082 66.9717 149.304 63.8846 149.304 59.9872C149.304 56.0898 152.082 53.0035 155.979 53.0035C159.876 53.0035 162.654 56.0898 162.654 59.9872ZM160.918 59.9872C160.918 57.1124 158.93 54.5467 155.979 54.5467C153.027 54.5467 151.04 57.1124 151.04 59.9872C151.04 62.862 153.027 65.4277 155.979 65.4277C158.93 65.4277 160.918 62.862 160.918 59.9872Z" fill="#0F0D0F"/>
<path d="M173.188 53.2345H174.809V61.7622C174.809 64.8298 172.976 66.9717 169.89 66.9717C166.802 66.9717 164.97 64.8298 164.97 61.7622V53.2345H166.59V61.5889C166.59 63.7682 167.555 65.4277 169.89 65.4277C172.223 65.4277 173.188 63.7682 173.188 61.5889V53.2345Z" fill="#0F0D0F"/>
<path d="M177.974 53.2347H181.524C184.302 53.2347 185.864 54.6623 185.864 56.9197C185.864 58.7525 184.533 59.5245 184.341 59.5627C184.533 59.6017 186.597 60.1997 186.597 62.8809C186.597 65.2351 184.861 66.74 182.199 66.74H177.974V53.2347ZM181.794 59.0616C183.318 59.0616 184.244 58.2319 184.244 56.9197C184.244 55.6076 183.318 54.7779 181.794 54.7779H179.594V59.0616H181.794ZM184.977 62.8809C184.977 61.6078 184.128 60.5657 182.199 60.5657H179.594V65.196H182.199C184.128 65.196 184.977 64.1548 184.977 62.8809Z" fill="#0F0D0F"/>
<path d="M194.238 53.2347H195.859V65.196H201.917V66.74H194.238V53.2347Z" fill="#0F0D0F"/>
<path d="M216.155 59.9872C216.155 63.8846 213.377 66.9717 209.48 66.9717C205.583 66.9717 202.805 63.8846 202.805 59.9872C202.805 56.0898 205.583 53.0035 209.48 53.0035C213.377 53.0035 216.155 56.0898 216.155 59.9872ZM214.419 59.9872C214.419 57.1124 212.432 54.5467 209.48 54.5467C206.529 54.5467 204.541 57.1124 204.541 59.9872C204.541 62.862 206.529 65.4277 209.48 65.4277C212.432 65.4277 214.419 62.862 214.419 59.9872Z" fill="#0F0D0F"/>
<path d="M224.665 59.3313H229.642V65.1964C229.642 65.1964 227.848 66.9714 224.337 66.9714C220.439 66.9714 217.623 63.8843 217.623 59.987C217.623 56.0904 220.439 53.0033 224.337 53.0033C227.829 53.0033 229.275 54.9133 229.275 54.9133L228.118 56.0514C228.118 56.0514 226.825 54.5464 224.337 54.5464C221.404 54.5464 219.359 57.1129 219.359 59.987C219.359 62.8618 221.404 65.4283 224.337 65.4283C226.806 65.4283 228.04 64.444 228.04 64.444V60.8745H224.665V59.3313Z" fill="#0F0D0F"/>
<path d="M232.575 53.2347H234.196V66.74H232.575V53.2347Z" fill="#0F0D0F"/>
<path d="M241.218 60.6627C239.251 59.7557 237.514 58.8494 237.514 56.553C237.514 54.9716 238.826 53.003 241.411 53.003C243.958 53.003 245.251 54.9716 245.251 54.9716L244.035 55.9551C244.035 55.9551 243.089 54.547 241.411 54.547C239.926 54.547 239.134 55.5882 239.134 56.553C239.134 57.9229 240.293 58.4631 242.144 59.3123C244.209 60.2576 245.501 61.1256 245.501 63.3057C245.501 65.5053 243.688 66.9712 241.314 66.9712C238.112 66.9712 237.013 64.1541 237.013 64.1541L238.363 63.3439C238.363 63.3439 239.173 65.428 241.314 65.428C242.607 65.428 243.842 64.6951 243.842 63.3057C243.842 61.8975 242.723 61.3574 241.218 60.6627Z" fill="#0F0D0F"/>
<path d="M250.653 54.7782H246.775V53.235H256.152V54.7782H252.274V66.7395H250.653V54.7782Z" fill="#0F0D0F"/>
<path d="M258.274 53.2347H259.895V66.74H258.274V53.2347Z" fill="#0F0D0F"/>
<path d="M272.879 56.1286C272.879 56.1286 271.626 54.5464 269.156 54.5464C266.223 54.5464 264.216 57.1129 264.216 59.987C264.216 62.8618 266.223 65.4283 269.156 65.4283C271.606 65.4283 273.052 63.6337 273.052 63.6337L274.152 64.7523C274.152 64.7523 272.319 66.9714 269.156 66.9714C265.258 66.9714 262.48 63.8843 262.48 59.987C262.48 56.0904 265.258 53.0033 269.156 53.0033C272.319 53.0033 273.998 55.0678 273.998 55.0678L272.879 56.1286Z" fill="#0F0D0F"/>
<path d="M279.709 60.6627C277.741 59.7557 276.004 58.8494 276.004 56.553C276.004 54.9716 277.316 53.003 279.901 53.003C282.448 53.003 283.741 54.9716 283.741 54.9716L282.526 55.9551C282.526 55.9551 281.58 54.547 279.901 54.547C278.416 54.547 277.625 55.5882 277.625 56.553C277.625 57.9229 278.783 58.4631 280.635 59.3123C282.699 60.2576 283.992 61.1256 283.992 63.3057C283.992 65.5053 282.178 66.9712 279.805 66.9712C276.603 66.9712 275.503 64.1541 275.503 64.1541L276.853 63.3439C276.853 63.3439 277.664 65.428 279.805 65.428C281.098 65.428 282.333 64.6951 282.333 63.3057C282.333 61.8975 281.214 61.3574 279.709 60.6627Z" fill="#0F0D0F"/>
</svg>
