<svg width="284" height="92" viewBox="0 0 284 92" fill="none" xmlns="http://www.w3.org/2000/svg">
<path d="M55.046 10.5188L55.025 0.0256996H54.5285L54.5511 10.3042C54.5527 11.162 54.2506 11.9816 53.723 12.5561L47.1943 19.1924L47.1873 15.6128V15.5917C47.2123 15.0367 47.4215 14.5153 47.7704 14.1523L52.766 9.12863C53.1992 8.67668 53.4482 8.01242 53.4412 7.3146L53.4053 3.48203L53.3975 -6.10352e-05L52.9112 0.00150299L52.919 3.31265C52.9206 3.98315 52.6848 4.62165 52.2735 5.07048L47.0882 10.3635C47.007 10.4517 46.9352 10.5493 46.8704 10.6546C46.8048 10.5493 46.7322 10.4517 46.6503 10.365L41.401 5.09155C40.9889 4.64585 40.75 4.00735 40.75 3.33607L40.743 0.0256996L40.2567 0.0272636L40.2645 3.50935L40.2434 7.34192C40.2387 8.03896 40.4893 8.70088 40.9256 9.15048L45.9408 14.1547C46.2912 14.5184 46.5012 15.0367 46.5301 15.5932V15.6143L46.5379 19.194L39.9804 12.5803C39.4512 12.0097 39.1483 11.1924 39.1467 10.3362L39.1257 0.0577011H38.6308L38.6519 10.5516L38.6245 15.3684C38.6199 16.231 38.9274 17.0459 39.466 17.6024L45.7651 23.8891C46.2124 24.348 46.4879 25.0185 46.5223 25.7343L46.5449 42.511L46.8688 42.8755L47.2341 42.511L47.2029 25.7609V25.7296C47.2373 25.0185 47.5105 24.3434 47.9546 23.8828L54.2584 17.572C54.7955 17.0139 55.0999 16.1966 55.0913 15.3357L55.046 10.5188ZM44.8847 27.2088L38.3201 20.5857C37.7909 20.0128 37.4865 19.1955 37.4849 18.3369L37.4467 0.0600471H36.9502V23.3716C36.9463 24.2341 37.264 25.0482 37.8042 25.6047L44.1018 31.8906C44.5873 32.3902 44.8667 33.1192 44.8683 33.8896L44.8815 40.8609L45.5778 41.5509L45.5833 29.1064C45.5848 28.3804 45.3311 27.6889 44.8847 27.2088ZM56.7875 0.0210152L56.2083 0.0225792L56.245 18.2995C56.2458 19.1581 55.946 19.9769 55.4184 20.5514L48.8788 27.201C48.4339 27.6826 48.1833 28.3757 48.188 29.1017V41.5571L48.9358 40.8546V40.8398L48.9225 33.8811C48.9209 33.1114 49.1973 32.3808 49.6804 31.8797L55.9538 25.5688C56.4908 25.0092 56.7937 24.1951 56.7875 23.3325V0.0210152Z" fill="#3D82D4"/>
<path d="M24.3737 17.41L16.1598 10.8798L15.8499 11.2677L23.8975 17.6629C24.5688 18.1976 25.0208 18.9438 25.1402 19.715L26.2541 28.9568L23.4518 26.7299L23.4355 26.7166C23.0179 26.3505 22.74 25.8619 22.6744 25.3624L21.8642 18.3248C21.7822 17.7042 21.4177 17.0946 20.8682 16.6653L17.8505 14.3026L15.1248 12.1357L14.8227 12.5166L17.415 14.5765C17.9395 14.9934 18.2923 15.5764 18.386 16.1775L19.2875 23.5319C19.3063 23.6506 19.3375 23.7677 19.3797 23.884C19.2563 23.8699 19.1346 23.8652 19.0151 23.8754L11.6193 24.6879C11.0144 24.7324 10.3657 24.5201 9.84195 24.1017L7.2497 22.0418L6.94762 22.4228L9.67335 24.5888L12.6559 26.9961C13.1976 27.4355 13.8712 27.6517 14.4949 27.5916L21.5348 26.7947C22.0375 26.7471 22.5737 26.9063 23.0272 27.2318L23.0436 27.2443L25.8451 29.4712L16.5852 30.4696C15.8094 30.5281 14.982 30.2549 14.3115 29.721L6.26541 23.3251L5.95631 23.7122L14.1717 30.2432L17.9192 33.2695C18.5905 33.8112 19.4187 34.0789 20.1899 34.0047L29.0329 33.0048C29.6706 32.9416 30.3661 33.1446 30.9476 33.5637L44.0728 44.0131L44.5598 43.9874L44.5029 43.4745L31.3925 33.0493L31.3683 33.029C30.8336 32.5584 30.4769 31.9245 30.3942 31.2899L29.3951 22.4259C29.2936 21.6578 28.8448 20.91 28.1664 20.38L24.3737 17.41ZM31.0779 35.7641L21.8064 36.7625C21.0282 36.8187 20.1992 36.5463 19.528 36.0124L5.22024 24.6388L4.91113 25.0267L23.1287 39.5702C23.8 40.1119 24.6352 40.3718 25.4072 40.2969L34.2478 39.297C34.9417 39.2283 35.6856 39.4656 36.289 39.9448L41.7451 44.2832L42.7185 44.17L32.9966 36.4011C32.4299 35.9476 31.7321 35.7142 31.0779 35.7641ZM17.2565 9.49975L16.8959 9.95325L31.2021 21.3276C31.8741 21.8615 32.3269 22.607 32.4463 23.3782L33.564 32.6372C33.6624 33.2858 34.048 33.9142 34.6178 34.3638L44.3514 42.1335L44.2702 41.111L44.2585 41.1016L38.8118 36.7711C38.2092 36.2918 37.8103 35.6205 37.7205 34.9305L36.7019 26.0906C36.5997 25.3218 36.1524 24.5763 35.4741 24.0432L17.2565 9.49975Z" fill="#2663BF"/>
<path d="M10.6227 45.6807L0.394965 48.0255L0.505025 48.5102L10.5228 46.2107C11.3595 46.0194 12.2252 46.1318 12.9019 46.5198L20.82 51.4154L17.3316 52.2155L17.3105 52.2202C16.7642 52.3186 16.2084 52.2304 15.7775 51.9704L9.77187 48.212C9.23562 47.8896 8.53234 47.7936 7.85403 47.956L4.1245 48.8396L0.730607 49.6186L0.839886 50.0924L4.06673 49.3516C4.72006 49.201 5.39525 49.2892 5.92369 49.5913L12.2338 53.4754C12.3384 53.5347 12.4492 53.5831 12.5663 53.6229C12.4781 53.7103 12.3992 53.8024 12.3329 53.9023L8.35359 60.189C8.01014 60.6893 7.43955 61.064 6.78622 61.2123L3.55937 61.9531L3.66865 62.4269L7.06175 61.6479L10.8038 60.8197C11.4852 60.669 12.0745 60.2787 12.4172 59.7534L16.1858 53.754C16.4621 53.3317 16.9218 53.0117 17.4581 52.8603L17.4784 52.8564L20.9667 52.0555L15.9703 59.915C15.5316 60.5574 14.8018 61.0343 13.9666 61.2256L3.94809 63.5228L4.05815 64.0059L14.2866 61.6603L18.9903 60.6191C19.8318 60.4325 20.5585 59.9525 20.9815 59.3038L25.7164 51.769C26.0653 51.2312 26.6578 50.8136 27.3478 50.6216L43.7029 46.8827L43.9871 46.4854L43.5507 46.2107L27.2237 49.9519L27.1933 49.9589C26.4923 50.083 25.7734 49.9659 25.2255 49.635L17.6751 44.886C17.0124 44.4856 16.1475 44.3701 15.31 44.5699L10.6227 45.6807ZM29.1486 51.8924L24.1452 59.7604C23.7034 60.4036 22.9735 60.8821 22.1375 61.0734L4.32276 65.1596L4.43282 65.6436L27.1652 60.4786C28.0066 60.292 28.731 59.8018 29.154 59.1516L33.8881 51.6184C34.2675 51.0338 34.9161 50.6005 35.6678 50.428L42.4626 48.87L42.9809 48.0387L30.8447 50.7902C30.136 50.9495 29.5178 51.3499 29.1486 51.8924ZM0 46.3082L0.129574 46.8726L17.9444 42.7879C18.7811 42.5966 19.646 42.7075 20.3235 43.0954L28.2564 47.9981C28.8246 48.326 29.556 48.4165 30.2632 48.2518L42.4088 45.4918L41.5587 44.918L41.5439 44.9212L34.7608 46.476C34.0107 46.6478 33.2372 46.5408 32.6416 46.1802L25.0974 41.4617C24.4332 41.0613 23.5714 40.9465 22.7323 41.1432L0 46.3082Z" fill="#0A45AB"/>
<path d="M24.1387 74.0641L19.5904 83.5207L20.0377 83.7361L24.4908 74.4724C24.8631 73.6996 25.4915 73.0931 26.2166 72.8059L34.9823 69.6727L33.4313 72.898L33.422 72.9167C33.1581 73.4053 32.7429 73.7847 32.2699 73.9595L25.5867 76.3083C24.9997 76.526 24.4861 77.0162 24.1895 77.6477L22.5534 81.1134L21.0446 84.2521L21.4833 84.462L22.9172 81.4779C23.2075 80.8738 23.6977 80.4008 24.2636 80.176L31.2356 77.6672C31.3472 77.6235 31.4542 77.5665 31.558 77.5002C31.572 77.6235 31.5947 77.7429 31.6306 77.8569L34.0613 84.889C34.2384 85.4697 34.1752 86.1488 33.8833 86.7522L32.4494 89.7363L32.8873 89.9463L34.3961 86.8084L36.0829 83.3669C36.3905 82.7409 36.4529 82.0368 36.2562 81.4412L33.9192 74.7534C33.7615 74.2741 33.7982 73.7152 34.0144 73.2016L34.0238 73.1829L35.5748 69.9568L38.5995 78.7655C38.8282 79.5093 38.7446 80.3773 38.3739 81.1485L33.9192 90.4115L34.3649 90.6269L38.9132 81.1696L41.034 76.8445C41.4134 76.0702 41.4914 75.203 41.2487 74.4677L38.3138 66.0657C38.1108 65.4584 38.1545 64.7341 38.4348 64.0753L45.7166 48.9612L45.5832 48.4913L45.0961 48.6607L37.8337 63.7545L37.8204 63.7833C37.4801 64.4086 36.94 64.8972 36.3397 65.1189L27.9174 68.0569C27.1915 68.3254 26.5616 68.9288 26.1947 69.7078L24.1387 74.0641ZM40.5509 63.4602L43.5787 72.2806C43.8058 73.0268 43.7246 73.8955 43.3523 74.6683L35.4311 91.1397L35.8784 91.356L46.0242 70.3682C46.4035 69.5939 46.4722 68.722 46.2279 67.9859L43.2938 59.5863C43.0736 58.9251 43.14 58.1469 43.4741 57.4522L46.4956 51.1702L46.1694 50.246L40.7476 61.4479C40.4307 62.1005 40.3581 62.8334 40.5509 63.4602ZM18.002 82.7573L18.5241 83.0078L26.4461 66.5372C26.8184 65.7644 27.4452 65.1571 28.1703 64.8699L36.9517 61.7289C37.5621 61.4893 38.0897 60.9741 38.4012 60.3184L43.8222 49.1049L42.8426 49.4108L42.8363 49.4249L39.8195 55.6959C39.4862 56.3891 38.9195 56.9269 38.2669 57.1673L29.872 60.1194C29.1453 60.3895 28.5177 60.9905 28.1477 61.7695L18.002 82.7573Z" fill="#002B87"/>
<path d="M54.7518 81.2093L59.3048 90.6635L59.7521 90.4488L55.2912 81.189C54.9189 80.4155 54.8369 79.5467 55.0648 78.8005L58.0848 69.9949L59.6381 73.2194L59.6467 73.2382C59.8637 73.7502 59.9012 74.3107 59.7427 74.7892L57.4088 81.4778C57.2129 82.0726 57.2754 82.7798 57.5837 83.405L59.2721 86.8465L60.7832 89.9828L61.2211 89.7713L59.7841 86.7888C59.493 86.1854 59.4289 85.5071 59.6061 84.9248L61.9954 77.9106C62.0306 77.7959 62.0532 77.6772 62.0657 77.5547C62.1711 77.621 62.278 77.6772 62.3896 77.7202L69.4022 80.2078C69.9665 80.4318 70.4575 80.9049 70.7479 81.5098L72.1849 84.4923L72.6228 84.2808L71.1109 81.1437L69.474 77.6788C69.1766 77.0473 68.6653 76.5595 68.0768 76.3417L61.3921 73.9953C60.919 73.8197 60.5053 73.4427 60.2392 72.9533L60.2298 72.9338L58.6765 69.7092L67.4477 72.8409C68.1713 73.1266 68.798 73.7323 69.1696 74.5042L73.6297 83.7648L74.0762 83.551L69.5224 74.096L67.4656 69.7405C67.0972 68.9607 66.4681 68.3589 65.7414 68.0896L57.3448 65.1414C56.743 64.9205 56.2044 64.435 55.8641 63.8051L48.5947 48.6848L48.1451 48.4959L47.9734 48.9822L55.2389 64.0744L55.2529 64.1025C55.5285 64.7589 55.5745 65.4856 55.3731 66.0929L52.414 74.5082C52.1713 75.2434 52.2501 76.1122 52.6302 76.885L54.7518 81.2093ZM56.704 61.767L65.4861 64.9033C66.2113 65.1913 66.8388 65.7971 67.2112 66.5706L75.1417 83.0366L75.5897 82.8227L65.5173 61.7998C65.1489 61.02 64.5096 60.4229 63.7821 60.1544L55.3872 57.207C54.7331 56.9666 54.1664 56.4295 53.8323 55.7348L50.8084 49.4536L49.8819 49.132L55.2537 60.3581C55.5659 61.013 56.0936 61.5274 56.704 61.767ZM57.7172 91.4292L58.2386 91.1771L50.3088 74.7103C49.9365 73.9368 49.853 73.0688 50.0817 72.3226L53.1048 63.4999C53.2984 62.8731 53.225 62.1401 52.9073 61.4868L47.5254 50.2545L47.1538 51.2115L47.1608 51.2247L50.1793 57.495C50.5134 58.1881 50.5805 58.9664 50.3611 59.6267L47.4301 68.0287C47.1874 68.7655 47.2662 69.6304 47.6448 70.4063L57.7172 91.4292Z" fill="#94D4FF"/>
<path d="M79.4365 61.7417L89.665 64.0818L89.7774 63.5978L79.7565 61.3077C78.9205 61.1156 78.1899 60.6379 77.7497 59.994L72.7517 52.1407L76.2408 52.9385L76.2611 52.9431C76.7958 53.093 77.2579 53.413 77.5327 53.8353L81.3044 59.8324C81.647 60.3569 82.2379 60.7488 82.9193 60.8986L86.6621 61.7253L90.056 62.5011L90.1645 62.0273L86.9369 61.2905C86.2828 61.1406 85.713 60.7675 85.3688 60.2664L81.3777 54.0227C81.3098 53.9235 81.231 53.8314 81.1436 53.7456C81.2606 53.7042 81.3715 53.6566 81.4753 53.5957L87.794 49.6679C88.3208 49.3658 88.9976 49.2768 89.6509 49.4283L92.8778 50.1651L92.9863 49.6913L89.5916 48.9154L85.8621 48.0334C85.1838 47.8718 84.4828 47.9671 83.9458 48.291L77.9417 52.0517C77.5093 52.3117 76.9558 52.3999 76.4079 52.3023L76.3868 52.2976L72.8977 51.4999L80.8173 46.5987C81.4917 46.2108 82.3566 46.1 83.1918 46.2912L93.2111 48.5829L93.3227 48.1005L83.0926 45.7604L78.4053 44.6504C77.5655 44.4522 76.7029 44.5685 76.0395 44.9681L68.4969 49.6905C67.9489 50.0231 67.2331 50.1417 66.5283 50.0137L50.1763 46.2615L49.7485 46.4957L50.0217 46.9336L66.3496 50.6709L66.38 50.678C67.0653 50.8715 67.6609 51.2891 68.0098 51.8254L72.7408 59.3875C73.1639 60.0361 73.8921 60.517 74.7328 60.7019L79.4365 61.7417ZM65.4605 48.0865L73.3902 43.1799C74.0678 42.7927 74.9326 42.6803 75.7686 42.8715L93.5857 46.9469L93.6974 46.4629L70.9838 41.2191C70.1446 41.02 69.279 41.1473 68.6155 41.5477L61.0745 46.2701C60.4789 46.6315 59.7054 46.7392 58.9537 46.5667L52.1589 45.0118L51.33 45.5348L63.4537 48.3402C64.1609 48.5049 64.8922 48.4135 65.4605 48.0865ZM89.2731 65.7998L89.4019 65.2355L71.5856 61.1594C70.7488 60.9673 70.0182 60.4912 69.5772 59.8472L64.5691 51.9799C64.1999 51.4374 63.5809 51.0378 62.8729 50.8786L50.7367 48.0771L51.2527 48.9646L51.2667 48.9677L58.0506 50.5203C58.8007 50.6912 59.4502 51.1252 59.8295 51.7083L64.5675 59.24C64.9922 59.8894 65.7181 60.3679 66.5595 60.556L89.2731 65.7998Z" fill="#66B5F5"/>
<path d="M79.6211 30.305L87.8318 23.7709L87.5227 23.3814L79.4821 29.7836C78.8101 30.3183 77.9811 30.5907 77.2029 30.5337L67.947 29.5393L70.7468 27.31L70.764 27.2975C71.2144 26.9728 71.753 26.812 72.2549 26.8604L79.2948 27.6543C79.9177 27.7136 80.5929 27.4958 81.1354 27.0571L84.1163 24.6483L86.8405 22.4799L86.5376 22.0998L83.9477 24.162C83.4232 24.5796 82.7761 24.7919 82.1688 24.7482L74.7995 23.9723C74.6801 23.9637 74.5591 23.9677 74.4366 23.9825C74.4779 23.8654 74.5099 23.7483 74.5263 23.6297L75.399 16.2409C75.4919 15.6406 75.8447 15.0567 76.37 14.6399L78.9599 12.5777L78.6571 12.1983L75.9329 14.3667L72.916 16.7311C72.3673 17.1604 72.0043 17.7676 71.9224 18.389L71.1153 25.4281C71.0489 25.9284 70.7726 26.4155 70.3542 26.7831L70.3378 26.7964L67.538 29.0257L68.6479 19.7784C68.7658 19.0095 69.2185 18.2641 69.889 17.731L77.9312 11.3303L77.6236 10.9424L69.4121 17.4773L65.6201 20.4481C64.9418 20.9804 64.4945 21.7274 64.3923 22.4947L63.3783 31.3362C63.2964 31.9723 62.942 32.6046 62.4026 33.076L49.2689 43.5145L49.1846 43.9953L49.6966 44.0547L62.8038 33.6263L62.8288 33.6068C63.4072 33.1916 64.1058 32.9863 64.7428 33.0487L73.6045 34.0689C74.3749 34.1431 75.2054 33.8738 75.8744 33.3321L79.6211 30.305ZM60.2295 32.7084L61.3426 23.4501C61.4628 22.6789 61.914 21.9327 62.5861 21.3988L76.886 10.0166L76.5777 9.62714L58.3086 24.1074C57.6295 24.6397 57.1892 25.3945 57.0886 26.1634L56.0738 35.0025C55.9848 35.6941 55.5868 36.3653 54.9834 36.8454L49.5288 41.1861L49.4203 42.1602L59.1766 34.435C59.7464 33.9854 60.1312 33.357 60.2295 32.7084ZM88.9301 25.1494L88.5687 24.6967L74.268 36.0773C73.5959 36.6112 72.7677 36.8852 71.9895 36.8282L62.7172 35.8346C62.0623 35.7846 61.3637 36.0188 60.7978 36.4731L51.0368 44.2092L52.0516 44.3599L52.0633 44.3505L57.5093 40.0176C58.1111 39.5383 58.855 39.301 59.5473 39.3682L68.3903 40.3649C69.1623 40.4383 69.9889 40.1698 70.661 39.6289L88.9301 25.1494Z" fill="#61A1E3"/>
<path d="M118.063 27.4077C118.721 27.4077 119.16 26.8957 119.16 26.2868C119.16 25.6522 118.697 25.1652 118.063 25.1652C117.453 25.1652 116.99 25.6772 116.99 26.2868C116.99 26.8957 117.429 27.4077 118.063 27.4077Z" fill="white"/>
<path d="M121.085 27.4077C121.768 27.4077 122.183 26.8957 122.183 26.2868C122.183 25.6522 121.743 25.1652 121.11 25.1652C120.476 25.1652 119.989 25.6772 119.989 26.2868C119.989 26.8957 120.452 27.4077 121.085 27.4077Z" fill="white"/>
<path d="M155.993 42.7413C155.335 42.7413 154.872 43.2533 154.872 43.8629C154.872 44.4967 155.335 45.0088 155.945 45.0088H155.969C156.651 45.0088 157.067 44.4967 157.067 43.8629C157.067 43.2291 156.627 42.7413 155.993 42.7413Z" fill="white"/>
<path d="M152.946 42.7413C152.337 42.7413 151.85 43.2533 151.85 43.8629C151.85 44.4967 152.312 45.0088 152.922 45.0088H152.946C153.604 45.0088 154.019 44.4967 154.019 43.8629C154.019 43.2291 153.58 42.7413 152.946 42.7413Z" fill="white"/>
<path d="M159.601 26.7251H159.625C160.284 26.7251 160.698 26.213 160.698 25.5792C160.698 24.9454 160.259 24.4576 159.625 24.4576C159.015 24.4576 158.528 24.9696 158.528 25.5792C158.528 26.213 158.991 26.7251 159.601 26.7251Z" fill="white"/>
<path d="M162.624 26.7251H162.648C163.331 26.7251 163.745 26.213 163.745 25.5792C163.745 24.9454 163.306 24.4576 162.672 24.4576C162.038 24.4576 161.551 24.9696 161.551 25.5792C161.551 26.213 162.014 26.7251 162.624 26.7251Z" fill="white"/>
<path d="M191.975 42.7899C191.365 42.7899 190.877 43.3019 190.877 43.9108C190.877 44.5454 191.341 45.0566 191.951 45.0566H191.975C192.633 45.0566 193.047 44.5454 193.047 43.9108C193.047 43.2777 192.609 42.7899 191.975 42.7899Z" fill="white"/>
<path d="M198.654 37.183C198.654 32.4535 195.437 29.2844 190.78 29.2844C188.903 29.2844 187.709 29.6747 187.197 29.9183L187.684 31.5278C188.391 31.1859 189.44 30.9182 190.707 30.9182C194.242 30.9182 196.582 33.1607 196.582 37.1104C196.582 37.695 196.533 38.2555 196.436 38.7433H186.441C184.929 38.7191 183.905 37.4023 183.93 36.0129V29.2844L181.955 29.9674V35.4033C181.955 37.4999 181.175 38.7433 179.615 38.7433C178.128 38.7433 177.177 37.3289 177.177 35.9887V30.3819L175.203 31.0883V35.7936C175.203 37.4999 174.496 38.7433 173.009 38.7433C171.473 38.7433 170.498 37.3539 170.498 35.9887V31.2835L168.523 31.9907V35.7936C168.523 37.4999 167.767 38.7433 166.28 38.7433C164.793 38.7191 163.746 37.3781 163.77 35.9887V29.2844L161.795 29.9674V35.7936C161.795 37.4889 161.048 38.7254 159.581 38.7417C158.08 38.7051 157.066 37.3719 157.091 35.9887V29.2844L155.116 29.9674V35.7936C155.116 37.4999 154.36 38.7433 152.873 38.7433H125.205C123.646 38.7433 123.012 37.4999 123.012 35.4033V29.4796C122.378 29.382 121.354 29.3094 120.013 29.3094C116.722 29.3094 113.602 30.6013 113.602 34.2582C113.602 37.549 116.356 38.9868 119.258 38.9868C119.842 38.9868 120.623 38.9385 121.793 38.7433C122.524 39.9618 123.743 40.3521 124.645 40.3521H153.605C155.067 40.3521 156.164 39.4505 156.651 38.1829C157.432 39.4989 158.553 40.3521 160.284 40.3521C161.747 40.3521 162.868 39.4505 163.33 38.1829C164.111 39.4989 165.233 40.3521 166.963 40.3521C166.98 40.3521 166.994 40.3505 167.01 40.3497L167.012 40.3521C168.474 40.3521 169.571 39.4505 170.059 38.1829C170.79 39.4989 171.985 40.3521 173.667 40.3521C175.129 40.3521 176.251 39.4505 176.714 38.1829C177.47 39.5965 178.64 40.3521 180.346 40.3521C181.394 40.3521 182.809 39.8642 183.491 38.1337C184.198 39.4989 185.392 40.3279 187.124 40.3521H198.995L199.678 38.7433H198.532C198.606 38.2555 198.654 37.7434 198.654 37.183ZM121.061 37.3289C120.574 37.3781 120.013 37.4265 119.501 37.4265C117.527 37.4265 115.626 36.525 115.626 34.209C115.626 31.9173 117.332 30.8206 119.526 30.8206C120.159 30.8206 120.623 30.8448 121.061 30.9424V37.3289Z" fill="white"/>
<path d="M223.057 35.4034C223.057 37.4868 222.285 38.7263 220.745 38.7419C219.245 38.7052 218.23 37.3712 218.254 35.9889V24.4576L216.28 25.1648V35.7929C216.28 37.5 215.524 38.7427 214.037 38.7427H214.013H212.355V34.3793C212.355 31.5272 211.453 29.2846 207.918 29.2846C204.749 29.2846 202.823 31.8441 202.823 35.1107C202.823 38.3532 204.993 40.3522 208.064 40.3522H210.308C210.185 42.6681 209.405 43.1794 207.455 43.5213L207.699 45.0816C210.283 45.13 212.355 43.1794 212.331 40.3522H214.72C214.736 40.3522 214.751 40.3506 214.767 40.3499L214.768 40.3522C216.231 40.3522 217.328 39.4499 217.816 38.1822C218.596 39.4991 219.716 40.3522 221.448 40.3522H221.449C222.911 40.3514 225.031 39.4007 225.031 35.647V24.4576L223.057 25.1648V35.4034ZM210.38 38.7427H208.552C206.601 38.7427 204.725 37.9629 204.701 34.9398C204.627 32.0392 206.09 30.674 207.747 30.674C209.796 30.674 210.38 32.3803 210.38 33.648V38.7427Z" fill="white"/>
<path d="M226.981 40.3521H228.956V24.4574L226.981 25.1646V40.3521Z" fill="white"/>
<path d="M243.753 42.7413C243.095 42.7413 242.631 43.2533 242.631 43.8629C242.631 44.4967 243.071 45.0088 243.704 45.0088H243.729C244.387 45.0088 244.826 44.4967 244.826 43.8629C244.826 43.2291 244.362 42.7413 243.753 42.7413Z" fill="white"/>
<path d="M249.554 35.4038C249.554 37.5004 248.774 38.743 247.214 38.743H240.412C238.195 38.743 236.756 36.769 236.756 34.599C236.756 32.2589 238.291 30.7961 239.413 30.0647L238.682 28.968C237.195 29.5776 234.952 31.4791 234.952 34.6232C234.952 38.4995 237.878 40.3525 240.412 40.3525H247.945C249.408 40.3525 251.529 39.4018 251.529 35.6473V29.2849L249.554 29.9679V35.4038Z" fill="white"/>
<path d="M259.769 29.2845C256.599 29.2845 254.674 31.844 254.674 35.1106C254.674 38.3531 256.673 40.5714 259.988 40.5714C260.841 40.5714 261.548 40.4981 262.157 40.3521C262.036 42.668 261.207 43.2527 259.305 43.5212L259.549 45.0815C262.889 45.0082 264.205 42.9116 264.205 39.4014V34.3792C264.205 31.5271 263.303 29.2845 259.769 29.2845ZM262.23 38.8409C261.694 38.9627 261.06 39.0353 260.256 39.0353C258.282 39.0353 256.574 37.9628 256.55 34.9405C256.478 32.6245 257.526 30.6739 259.598 30.6739C261.646 30.6739 262.23 32.3802 262.23 33.6479V38.8409Z" fill="white"/>
<path d="M267.57 38.8409C267.691 42.8874 266.497 43.351 264.644 43.5212L264.888 45.0815C268.155 44.984 269.52 43.0825 269.52 39.5723V31.5029L267.57 32.2101V38.8409Z" fill="white"/>
<path d="M282.538 33.8434C281.928 31.2106 280.368 29.2849 277.565 29.2849C276.297 29.2849 275.079 29.8212 274.322 30.3332L274.663 31.8444C275.322 31.3815 276.345 30.8937 277.296 30.8937C279.223 30.8937 280.27 32.2105 280.636 34.087L281.66 38.743H272.446L271.763 40.3525H284L282.538 33.8434Z" fill="white"/>
<path d="M124.163 59.9871C124.163 63.8844 121.675 66.7397 117.488 66.7397H113.61V53.2344H117.488C121.675 53.2344 124.163 56.0897 124.163 59.9871ZM122.426 59.9871C122.426 57.1123 120.69 54.7776 117.391 54.7776H115.23V65.1966H117.391C120.69 65.1966 122.426 62.8619 122.426 59.9871Z" fill="white"/>
<path d="M134.697 53.2345H136.318V61.7622C136.318 64.8298 134.485 66.9717 131.398 66.9717C128.311 66.9717 126.479 64.8298 126.479 61.7622V53.2345H128.099V61.5889C128.099 63.7682 129.064 65.4277 131.398 65.4277C133.732 65.4277 134.697 63.7682 134.697 61.5889V53.2345Z" fill="white"/>
<path d="M139.482 53.2344H142.993C145.675 53.2344 147.508 54.8166 147.508 57.2278C147.508 60.4305 144.595 61.0291 144.21 61.0869L147.952 66.7397H146.003L142.357 61.2219H141.103V66.7397H139.482V53.2344ZM145.888 57.2278C145.888 55.7424 144.903 54.7776 143.09 54.7776H141.103V59.678H143.09C144.903 59.678 145.888 58.714 145.888 57.2278Z" fill="white"/>
<path d="M162.654 59.9872C162.654 63.8846 159.876 66.9717 155.979 66.9717C152.081 66.9717 149.303 63.8846 149.303 59.9872C149.303 56.0898 152.081 53.0035 155.979 53.0035C159.876 53.0035 162.654 56.0898 162.654 59.9872ZM160.918 59.9872C160.918 57.1124 158.93 54.5467 155.979 54.5467C153.027 54.5467 151.04 57.1124 151.04 59.9872C151.04 62.862 153.027 65.4277 155.979 65.4277C158.93 65.4277 160.918 62.862 160.918 59.9872Z" fill="white"/>
<path d="M173.189 53.2345H174.809V61.7622C174.809 64.8298 172.976 66.9717 169.89 66.9717C166.803 66.9717 164.97 64.8298 164.97 61.7622V53.2345H166.591V61.5889C166.591 63.7682 167.555 65.4277 169.89 65.4277C172.224 65.4277 173.189 63.7682 173.189 61.5889V53.2345Z" fill="white"/>
<path d="M177.974 53.2344H181.524C184.302 53.2344 185.865 54.6621 185.865 56.9195C185.865 58.7522 184.534 59.5242 184.341 59.5625C184.534 59.6015 186.598 60.1994 186.598 62.8806C186.598 65.2348 184.862 66.7397 182.199 66.7397H177.974V53.2344ZM181.794 59.0613C183.319 59.0613 184.244 58.2316 184.244 56.9195C184.244 55.6074 183.319 54.7776 181.794 54.7776H179.595V59.0613H181.794ZM184.977 62.8806C184.977 61.6075 184.129 60.5655 182.199 60.5655H179.595V65.1958H182.199C184.129 65.1958 184.977 64.1545 184.977 62.8806Z" fill="white"/>
<path d="M194.238 53.2344H195.858V65.1958H201.916V66.7397H194.238V53.2344Z" fill="white"/>
<path d="M216.155 59.9872C216.155 63.8846 213.377 66.9717 209.48 66.9717C205.582 66.9717 202.804 63.8846 202.804 59.9872C202.804 56.0898 205.582 53.0035 209.48 53.0035C213.377 53.0035 216.155 56.0898 216.155 59.9872ZM214.419 59.9872C214.419 57.1124 212.432 54.5467 209.48 54.5467C206.528 54.5467 204.541 57.1124 204.541 59.9872C204.541 62.862 206.528 65.4277 209.48 65.4277C212.432 65.4277 214.419 62.862 214.419 59.9872Z" fill="white"/>
<path d="M224.664 59.331H229.642V65.1962C229.642 65.1962 227.847 66.9712 224.336 66.9712C220.439 66.9712 217.623 63.8841 217.623 59.9867C217.623 56.0901 220.439 53.003 224.336 53.003C227.828 53.003 229.275 54.9131 229.275 54.9131L228.117 56.0511C228.117 56.0511 226.825 54.5462 224.336 54.5462C221.404 54.5462 219.359 57.1127 219.359 59.9867C219.359 62.8615 221.404 65.428 224.336 65.428C226.806 65.428 228.04 64.4437 228.04 64.4437V60.8742H224.664V59.331Z" fill="white"/>
<path d="M232.575 53.2349H234.196V66.7402H232.575V53.2349Z" fill="white"/>
<path d="M241.218 60.6627C239.251 59.7557 237.514 58.8494 237.514 56.553C237.514 54.9716 238.826 53.003 241.411 53.003C243.958 53.003 245.251 54.9716 245.251 54.9716L244.035 55.9551C244.035 55.9551 243.089 54.547 241.411 54.547C239.926 54.547 239.134 55.5882 239.134 56.553C239.134 57.9229 240.293 58.4631 242.144 59.3123C244.209 60.2576 245.501 61.1256 245.501 63.3057C245.501 65.5053 243.688 66.9712 241.314 66.9712C238.112 66.9712 237.013 64.1541 237.013 64.1541L238.363 63.3439C238.363 63.3439 239.173 65.428 241.314 65.428C242.607 65.428 243.842 64.6951 243.842 63.3057C243.842 61.8975 242.723 61.3574 241.218 60.6627Z" fill="white"/>
<path d="M250.653 54.7779H246.775V53.2347H256.151V54.7779H252.273V66.7393H250.653V54.7779Z" fill="white"/>
<path d="M258.274 53.2349H259.895V66.7402H258.274V53.2349Z" fill="white"/>
<path d="M272.88 56.1284C272.88 56.1284 271.626 54.5462 269.156 54.5462C266.224 54.5462 264.217 57.1127 264.217 59.9867C264.217 62.8615 266.224 65.428 269.156 65.428C271.607 65.428 273.053 63.6335 273.053 63.6335L274.153 64.7521C274.153 64.7521 272.32 66.9712 269.156 66.9712C265.259 66.9712 262.481 63.8841 262.481 59.9867C262.481 56.0901 265.259 53.003 269.156 53.003C272.32 53.003 273.999 55.0676 273.999 55.0676L272.88 56.1284Z" fill="white"/>
<path d="M279.709 60.6627C277.741 59.7557 276.004 58.8494 276.004 56.553C276.004 54.9716 277.316 53.003 279.901 53.003C282.448 53.003 283.741 54.9716 283.741 54.9716L282.526 55.9551C282.526 55.9551 281.58 54.547 279.901 54.547C278.416 54.547 277.625 55.5882 277.625 56.553C277.625 57.9229 278.783 58.4631 280.635 59.3123C282.699 60.2576 283.992 61.1256 283.992 63.3057C283.992 65.5053 282.178 66.9712 279.805 66.9712C276.603 66.9712 275.503 64.1541 275.503 64.1541L276.853 63.3439C276.853 63.3439 277.664 65.428 279.805 65.428C281.098 65.428 282.333 64.6951 282.333 63.3057C282.333 61.8975 281.214 61.3574 279.709 60.6627Z" fill="white"/>
</svg>
