<svg width="1920" height="287" viewBox="0 0 1920 287" fill="none" xmlns="http://www.w3.org/2000/svg">
<g opacity="0.1">
<path d="M1910.75 118.323L1779.81 181.722L1771.53 178.606L1774.23 170.204L1905.22 106.83C1907.18 110.594 1909.03 114.409 1910.75 118.323Z" fill="#4667E5"/>
<path d="M1919.3 141.459L1812.85 193.241L1795.54 187.332L1915.24 129.392C1916.73 133.356 1918.1 137.37 1919.3 141.434" fill="#4667E5"/>
<path d="M1899.38 96.4087L1779.61 154.398L1785.7 137.171L1892.48 85.7632C1894.9 89.2286 1897.16 92.7937 1899.38 96.4087Z" fill="#4667E5"/>
<path d="M1780.36 6.3579L1747.98 149.363L1740.4 153.9L1735.49 146.545L1767.95 3.39111C1772.13 4.2637 1776.25 5.21108 1780.34 6.33298" fill="#4667E5"/>
<path d="M1803.77 14.2601L1777.59 130.738L1762.19 140.561L1791.8 9.77246C1795.84 11.1686 1799.83 12.6395 1803.75 14.2351" fill="#4667E5"/>
<path d="M1756.2 1.42107L1726.49 132.509L1716.81 116.977L1743.51 0.124644C1743.51 0.124644 1743.51 0.0498621 1743.51 0C1747.78 0.324104 1751.99 0.797793 1756.18 1.42107" fill="#4667E5"/>
<path d="M1702.82 154.073L1701.63 162.849L1692.83 162.076L1599.96 45.9471C1603.22 43.2047 1606.57 40.562 1610.01 38.0439L1702.8 154.098L1702.82 154.073Z" fill="#4667E5"/>
<path d="M1706.74 119.295L1704.82 137.47L1619.85 31.2385C1623.42 28.9448 1627.08 26.7509 1630.8 24.6816C1631.07 25.0556 1631.37 25.4545 1631.7 25.8534L1706.74 119.32V119.295Z" fill="#4667E5"/>
<path d="M1676.23 160.331L1658.08 158.212L1583.38 64.4463C1582.96 63.9228 1582.56 63.3992 1582.06 62.9006C1584.93 59.7593 1587.97 56.7426 1591.09 53.8257L1676.25 160.306L1676.23 160.331Z" fill="#4667E5"/>
<path d="M1684.43 198.626L1678.32 205.033L-249.9 205.108C-249.974 203.089 -249.999 201.069 -249.999 199.025C-249.999 196.806 -249.974 194.587 -249.875 192.368L1678.32 192.269L1684.43 198.626Z" fill="url(#paint0_linear_4336_927)"/>
<path d="M1666.58 180.351L-249.128 180.451C-248.779 176.163 -248.255 171.949 -247.557 167.736C-246.61 167.786 -245.663 167.811 -244.74 167.811L1653.56 167.512L1666.55 180.351H1666.58Z" fill="url(#paint1_linear_4336_927)"/>
<path d="M1666.6 216.975L1653.61 229.839L-244.665 229.689C-245.662 229.689 -246.659 229.714 -247.656 229.764C-248.305 225.576 -248.828 221.338 -249.202 217.074L1666.6 217V216.975Z" fill="url(#paint2_linear_4336_927)"/>
<path d="M1702.87 243.203L1609.83 359.905C1606.39 357.387 1603.05 354.745 1599.78 352.002L1692.9 235.275L1701.7 234.477L1702.9 243.228L1702.87 243.203Z" fill="#4667E5"/>
<path d="M1676.27 236.996L1590.88 344.075C1587.77 341.158 1584.78 338.116 1581.88 334.975C1582.43 334.351 1583.01 333.678 1583.53 333.005L1658.1 239.14L1676.25 236.996H1676.27Z" fill="#4667E5"/>
<path d="M1706.84 277.981L1631.92 371.548C1631.47 372.121 1631.02 372.719 1630.58 373.293C1626.86 371.199 1623.22 369.005 1619.66 366.711L1704.9 259.832L1706.84 278.006V277.981Z" fill="#4667E5"/>
<path d="M1780.81 391.593C1776.72 392.74 1772.58 393.712 1768.39 394.559L1735.61 250.707L1740.5 243.328L1748.08 247.84L1780.83 391.593H1780.81Z" fill="#4667E5"/>
<path d="M1756.63 396.579C1752.46 397.178 1748.25 397.676 1743.96 398C1743.96 397.701 1743.86 397.377 1743.79 397.053L1716.91 280.251L1726.56 264.719L1756.63 396.554V396.579Z" fill="#4667E5"/>
<path d="M1804.17 383.614C1800.26 385.235 1796.29 386.73 1792.25 388.102L1762.26 256.615L1777.69 266.438L1804.1 383.34C1804.1 383.34 1804.15 383.514 1804.17 383.614Z" fill="#4667E5"/>
<path d="M1911.15 278.804C1909.43 282.718 1907.61 286.558 1905.66 290.322L1774.28 226.947L1771.54 218.546L1779.81 215.429L1911.12 278.804H1911.15Z" fill="#4667E5"/>
<path d="M1899.88 300.744C1897.73 304.409 1895.44 307.999 1893.05 311.489L1785.77 259.982L1779.66 242.754L1899.88 300.769V300.744Z" fill="#4667E5"/>
<path d="M1919.58 255.618C1918.38 259.707 1917.06 263.721 1915.59 267.685L1795.57 209.77L1812.85 203.836L1919.58 255.593V255.618Z" fill="#4667E5"/>
</g>
<defs>
<linearGradient id="paint0_linear_4336_927" x1="-249.999" y1="198.688" x2="1684.43" y2="198.688" gradientUnits="userSpaceOnUse">
<stop stop-color="#27397F" stop-opacity="0"/>
<stop offset="1" stop-color="#4667E5"/>
</linearGradient>
<linearGradient id="paint1_linear_4336_927" x1="-249.128" y1="173.981" x2="1666.58" y2="173.981" gradientUnits="userSpaceOnUse">
<stop stop-color="#27397F" stop-opacity="0"/>
<stop offset="1" stop-color="#4667E5"/>
</linearGradient>
<linearGradient id="paint2_linear_4336_927" x1="-249.202" y1="223.407" x2="1666.6" y2="223.407" gradientUnits="userSpaceOnUse">
<stop stop-color="#27397F" stop-opacity="0"/>
<stop offset="1" stop-color="#4667E5"/>
</linearGradient>
</defs>
</svg>
